<svg preserveAspectRatio="xMidYMid meet" viewBox="376 616 1308 1000" xmlns="http://www.w3.org/2000/svg" version="1.0" style="max-height: 500px" width="1308" height="1000">

<g stroke="none" fill="#000000" transform="translate(0.000000,2000.000000) scale(0.100000,-0.100000)">
<path d="M0 10000 l0 -10000 10000 0 10000 0 0 10000 0 10000 -10000 0 -10000&#10;0 0 -10000z m5645 3681 c22 -11 52 -30 67 -43 36 -32 124 -155 188 -263 108&#10;-183 146 -242 231 -356 169 -227 490 -594 770 -881 l114 -117 113 19 c420 71&#10;1088 118 1532 106 730 -18 1361 -130 1842 -328 l98 -39 32 22 c189 132 416&#10;321 623 519 88 84 206 191 262 239 208 175 666 441 895 520 147 51 209 47 279&#10;-16 49 -44 72 -89 98 -185 43 -158 56 -335 55 -738 0 -257 -4 -331 -22 -470&#10;-31 -229 -74 -430 -126 -595 -93 -292 -260 -766 -326 -927 -90 -216 -210 -615&#10;-235 -780 -13 -89 80 -447 219 -835 40 -114 88 -255 106 -312 29 -94 119 -290&#10;177 -383 13 -21 23 -53 23 -72 0 -46 -59 -99 -135 -121 -50 -15 -55 -19 -55&#10;-46 0 -45 -29 -109 -82 -179 -27 -36 -45 -66 -40 -68 5 -1 52 2 103 7 103 11&#10;277 7 391 -9 154 -22 336 -79 533 -170 39 -18 89 -41 113 -51 l42 -18 54 65&#10;c146 177 298 454 334 610 71 300 78 611 23 919 -16 94 -35 215 -40 271 -15&#10;149 -66 466 -105 659 -63 311 -71 379 -71 630 0 247 11 345 61 534 54 202 150&#10;424 240 556 109 160 281 357 327 374 50 19 75 -13 58 -74 -11 -41 -11 -41 69&#10;24 165 134 393 256 617 330 487 161 861 143 1253 -61 143 -73 289 -176 314&#10;-220 20 -36 20 -37 2 -57 -14 -15 -31 -21 -62 -21 l-43 0 55 -92 c108 -184&#10;144 -326 125 -487 -17 -138 -36 -180 -130 -286 -85 -96 -172 -151 -316 -199&#10;-110 -37 -149 -45 -300 -61 -375 -40 -438 -47 -525 -61 -222 -36 -437 -114&#10;-580 -211 l-35 -23 61 6 c57 6 62 5 69 -15 5 -17 -4 -34 -43 -79 -27 -31 -74&#10;-104 -105 -162 -194 -364 -222 -621 -131 -1187 19 -117 28 -583 14 -713 -47&#10;-428 -212 -798 -498 -1115 -112 -125 -225 -225 -252 -225 -28 0 -31 -13 -9&#10;-46 146 -215 245 -628 219 -919 -20 -223 -50 -334 -128 -470 -55 -95 -312&#10;-346 -441 -429 -68 -45 -137 -101 -200 -165 -53 -54 -117 -112 -143 -129 -169&#10;-115 -453 -211 -733 -246 -71 -9 -196 -28 -276 -41 -228 -39 -658 -86 -834&#10;-92 -175 -6 -326 6 -440 37 -38 10 -113 28 -165 40 -120 28 -178 59 -246 133&#10;l-54 58 -77 -61 c-42 -34 -94 -73 -115 -87 -69 -43 -271 -141 -338 -163 -71&#10;-24 -263 -68 -460 -105 -69 -13 -215 -46 -325 -73 -344 -86 -454 -97 -636 -66&#10;-193 33 -358 95 -443 165 -55 47 -111 137 -132 216 -9 37 -18 69 -19 70 0 1&#10;-91 -21 -200 -48 -189 -48 -209 -51 -365 -56 -188 -6 -367 12 -528 53 -96 24&#10;-228 88 -347 167 -77 52 -227 197 -266 259 -83 129 -80 316 8 445 53 78 216&#10;254 281 303 71 53 206 124 275 144 l42 12 17 142 c19 152 33 203 102 364 28&#10;64 40 104 33 105 -48 10 -428 81 -583 108 -304 54 -500 127 -964 360 -265 132&#10;-620 343 -777 461 -40 30 -75 54 -78 54 -3 0 -2 -30 1 -67 6 -57 5 -68 -11&#10;-80 -32 -23 -50 -15 -113 50 -125 126 -217 276 -262 429 l-26 88 -45 -87 c-26&#10;-49 -55 -93 -68 -99 -84 -42 -129 72 -123 315 4 195 56 381 140 505 19 28 72&#10;116 117 196 46 80 106 186 135 235 71 121 245 472 308 620 93 220 145 421 178&#10;696 l18 145 -36 115 c-19 63 -54 162 -77 221 -89 232 -124 434 -124 723 0 294&#10;25 408 188 875 51 146 145 425 209 620 177 541 269 759 365 862 89 97 160 119&#10;246 79z"/>
<path d="M5606 13308 c-9 -40 -23 -115 -32 -165 -8 -51 -37 -195 -64 -320 -80&#10;-371 -94 -498 -93 -833 0 -306 14 -449 68 -732 58 -296 98 -426 250 -803 113&#10;-280 164 -425 191 -541 8 -35 17 -70 20 -78 3 -9 2 -16 -3 -16 -5 0 -27 46&#10;-47 103 -21 56 -93 217 -161 357 -263 547 -379 836 -429 1070 -54 251 -61 326&#10;-60 630 1 335 18 496 95 868 10 52 18 97 16 99 -2 1 -41 -115 -87 -260 -45&#10;-144 -136 -417 -201 -605 -170 -492 -189 -576 -189 -848 0 -153 7 -216 79&#10;-714 22 -152 157 -605 260 -870 38 -96 76 -197 84 -225 51 -156 76 -345 47&#10;-345 -17 0 -41 47 -89 173 -61 159 -154 377 -161 377 -3 0 -28 -46 -57 -103&#10;-29 -56 -76 -142 -105 -192 -30 -49 -73 -135 -97 -190 -63 -146 -165 -333&#10;-250 -460 -41 -60 -102 -151 -136 -202 -78 -115 -214 -383 -248 -488 -33 -101&#10;-79 -293 -74 -308 2 -6 16 12 32 41 63 116 109 78 256 -213 39 -77 80 -154 91&#10;-172 19 -32 19 -32 39 -12 25 25 88 25 160 0 66 -23 249 -109 554 -259 346&#10;-171 879 -393 1132 -471 132 -41 729 -185 948 -230 140 -28 499 -86 690 -111&#10;205 -27 245 -37 245 -61 0 -10 -4 -20 -9 -23 -5 -3 -74 -2 -152 3 -79 6 -211&#10;12 -294 16 -82 3 -177 8 -210 10 -33 3 -121 9 -195 15 -74 5 -161 12 -192 16&#10;l-57 6 -16 -38 c-70 -169 -112 -441 -101 -659 14 -294 101 -494 302 -700 151&#10;-155 304 -233 526 -268 l87 -14 6 31 c49 246 262 590 550 885 202 208 379 343&#10;589 451 217 111 757 340 802 340 15 0 -2 -18 -28 -29 -285 -126 -923 -609&#10;-1176 -891 -189 -211 -464 -580 -533 -717 -35 -68 -43 -94 -47 -155 -4 -69 -2&#10;-77 34 -148 47 -90 102 -133 229 -179 123 -44 238 -62 440 -68 158 -4 203 -2&#10;367 21 387 55 735 144 923 238 71 35 214 124 304 188 56 40 65 51 76 93 7 26&#10;24 64 38 84 15 21 23 40 19 44 -22 21 -195 99 -240 108 -182 37 -841 -49&#10;-1184 -154 -130 -40 -147 -43 -127 -19 39 48 532 245 849 341 101 30 133 35&#10;260 40 125 5 156 10 224 34 92 33 174 77 234 126 95 77 54 -13 -53 -116 l-71&#10;-70 87 -31 c89 -32 160 -85 174 -131 4 -10 9 -19 13 -19 9 0 236 80 240 85 3&#10;2 -16 28 -40 57 -83 99 -147 221 -188 356 -64 214 4 503 191 808 62 101 123&#10;179 219 274 246 247 517 378 879 425 113 15 436 22 531 11 25 -3 70 -8 100&#10;-11 67 -7 96 -21 59 -29 -13 -3 -76 -8 -139 -11 -356 -19 -699 -95 -925 -205&#10;-169 -81 -341 -230 -457 -394 -59 -84 -144 -258 -187 -380 -43 -121 -61 -236&#10;-61 -381 l0 -122 38 -59 c86 -133 262 -244 442 -280 118 -24 413 -14 749 25&#10;151 17 263 26 275 21 26 -10 21 -12 -89 -39 -248 -61 -468 -101 -752 -136&#10;-134 -17 -322 -53 -478 -91 -209 -52 -485 -181 -485 -227 0 -52 80 -117 196&#10;-158 73 -26 263 -39 396 -28 51 4 197 13 323 18 473 22 460 20 720 70 83 16&#10;213 41 290 56 271 52 479 130 641 241 223 152 464 371 554 504 65 95 168 323&#10;204 450 44 155 50 355 16 525 -28 143 -44 194 -91 285 -128 247 -373 458 -631&#10;544 -164 55 -633 78 -893 44 -71 -10 -182 -22 -245 -27 -107 -9 -121 -13 -190&#10;-50 -103 -54 -207 -96 -545 -218 -384 -139 -409 -147 -630 -203 -104 -26 -269&#10;-70 -365 -98 -96 -27 -267 -71 -379 -97 -252 -58 -420 -111 -573 -180 -107&#10;-49 -128 -54 -128 -35 0 19 291 184 462 264 121 56 383 154 639 239 108 36&#10;276 99 374 141 182 78 288 118 690 258 391 136 620 258 787 416 75 72 76 73&#10;62 100 -35 67 7 122 91 122 54 0 145 29 145 46 0 8 -28 40 -62 72 -71 66 -212&#10;251 -280 367 -53 90 -114 242 -182 455 -99 306 -154 553 -216 975 -102 689&#10;-168 888 -404 1220 -131 184 -410 436 -576 520 -375 189 -756 326 -1101 396&#10;-169 34 -540 82 -774 100 -251 19 -893 16 -1365 -6 -47 -2 -161 -7 -255 -11&#10;-93 -4 -173 -9 -177 -10 -5 -1 -18 -2 -29 -3 -18 -1 -11 -13 46 -72 113 -121&#10;226 -313 260 -444 17 -67 20 -149 5 -140 -5 3 -40 50 -77 103 -78 113 -179&#10;238 -197 245 -7 3 -77 81 -155 173 -154 182 -358 394 -579 602 -180 169 -363&#10;374 -510 571 -117 157 -245 349 -288 434 -13 26 -26 47 -28 47 -2 0 -11 -33&#10;-20 -72z m2651 -4992 c149 -40 207 -92 200 -179 -7 -84 -51 -112 -200 -129&#10;-90 -10 -113 -9 -172 5 -75 19 -131 55 -146 95 -35 93 7 167 114 201 74 24&#10;134 26 204 7z m2574 -47 c55 -39 64 -102 21 -150 -36 -40 -138 -69 -245 -69&#10;-120 0 -177 34 -177 106 0 65 78 115 215 139 82 13 143 5 186 -26z m-792 -68&#10;c27 -15 36 -54 21 -90 -6 -16 -38 -54 -69 -84 -52 -50 -58 -60 -59 -99 -4&#10;-104 -52 -273 -75 -265 -6 2 -12 19 -13 38 -5 69 -35 264 -42 269 -4 3 -38 16&#10;-77 28 -99 31 -135 55 -135 90 0 53 66 92 202 118 81 15 214 12 247 -5z m582&#10;-392 c132 -13 265 -41 404 -86 196 -63 385 -163 385 -203 0 -31 -22 -25 -133&#10;39 -232 134 -509 207 -825 218 -112 4 -162 9 -159 17 9 26 159 33 328 15z&#10;m-1067 -8 c9 -14 -13 -27 -133 -80 -326 -146 -623 -334 -869 -550 -101 -89&#10;-132 -103 -132 -60 0 42 262 285 427 394 146 98 361 199 563 266 123 41 136&#10;44 144 30z m863 -166 c160 -61 308 -160 439 -296 127 -132 191 -244 139 -244&#10;-12 0 -30 17 -49 45 -120 183 -301 337 -523 447 -144 71 -148 101 -6 48z&#10;m-879 -33 c-1 -5 -66 -65 -143 -134 -236 -211 -438 -450 -580 -683 -54 -89&#10;-195 -373 -195 -392 0 -7 -9 -17 -20 -23 -36 -19 -35 17 4 138 48 145 104 257&#10;205 407 170 255 406 495 645 656 54 36 92 50 84 31z"/>
<path d="M12489 12797 c-46 -61 -195 -229 -372 -417 -207 -220 -362 -427 -539&#10;-720 -54 -89 -228 -416 -228 -428 0 -4 69 -77 153 -162 227 -230 325 -390 424&#10;-688 41 -126 104 -407 119 -534 7 -61 18 -68 29 -18 4 16 28 85 55 152 116&#10;296 279 804 324 1013 44 205 115 601 133 749 21 172 24 664 4 856 -13 130 -38&#10;260 -49 260 -4 0 -28 -28 -53 -63z"/>
<path d="M12375 12802 c-144 -63 -259 -126 -425 -231 -338 -213 -495 -342&#10;-873 -712 l-228 -224 107 -85 c59 -47 131 -104 160 -127 l53 -43 27 48 c153&#10;267 644 815 1112 1239 105 96 192 177 192 179 0 8 -18 2 -125 -44z"/>
<path d="M15515 11919 c-125 -7 -372 -55 -490 -95 -90 -30 -257 -103 -325&#10;-142 -54 -31 -198 -132 -260 -182 -61 -50 -88 -63 -116 -56 -40 10 -47 38 -24&#10;97 11 29 18 55 15 57 -5 5 -88 -108 -121 -163 -34 -59 -136 -287 -177 -397&#10;-92 -245 -150 -584 -151 -883 0 -255 27 -403 139 -745 112 -344 147 -489 165&#10;-688 15 -170 16 -475 1 -537 -7 -27 -17 -88 -22 -135 -13 -120 -42 -229 -105&#10;-397 -73 -195 -100 -244 -193 -361 -75 -94 -140 -153 -218 -198 -18 -10 -33&#10;-21 -33 -24 0 -3 13 -13 28 -22 16 -10 68 -51 115 -93 l87 -76 12 26 c6 14 54&#10;56 107 93 190 135 407 368 487 525 98 192 133 362 134 636 0 178 -14 283 -76&#10;576 -78 362 -77 357 -77 550 -1 257 36 439 125 605 38 72 137 203 161 214 7 3&#10;2 3 -10 1 -25 -7 -53 26 -46 54 9 33 139 188 219 260 189 171 490 261 935 281&#10;214 10 344 31 492 81 223 74 298 183 284 412 -10 147 -41 289 -82 374 -51 105&#10;-45 143 24 145 17 1 31 2 31 4 0 1 -30 16 -67 34 -263 123 -641 189 -968 169z"/>
<path d="M6820 5453 c-36 -41 -122 -129 -191 -196 -136 -132 -168 -174 -205&#10;-273 -39 -106 -29 -165 42 -243 41 -46 215 -166 279 -193 122 -52 261 -100&#10;321 -112 140 -29 342 -38 529 -25 174 12 186 17 95 40 -80 21 -244 96 -338&#10;156 -187 119 -306 263 -361 433 -25 78 -76 306 -92 410 -6 41 -12 76 -13 77 0&#10;1 -30 -32 -66 -74z"/>
</g>
</svg>