<svg preserveAspectRatio="xMidYMid meet" viewBox="376 616 1308 1000" xmlns="http://www.w3.org/2000/svg" version="1.0" style="max-height: 500px" width="1308" height="1000">

<g stroke="none" fill="#000000" transform="translate(0.000000,2000.000000) scale(0.100000,-0.100000)">
<path d="M5489 13680 c-56 -30 -140 -128 -183 -216 -71 -143 -154 -364 -272&#10;-724 -64 -195 -158 -474 -209 -620 -163 -467 -187 -581 -188 -875 0 -289 35&#10;-491 124 -723 23 -59 58 -159 77 -222 l36 -114 -23 -179 c-33 -261 -85 -458&#10;-178 -677 -58 -135 -234 -488 -303 -605 -29 -49 -89 -155 -135 -235 -45 -80&#10;-98 -168 -117 -196 -84 -124 -138 -315 -139 -494 -2 -262 38 -369 122 -326 12&#10;6 43 50 68 98 l45 87 26 -88 c45 -152 137 -302 262 -428 63 -65 81 -73 113&#10;-50 16 12 17 23 11 80 -3 37 -4 67 -1 67 4 0 33 -20 65 -45 143 -110 521 -335&#10;779 -465 465 -233 675 -311 973 -364 150 -27 500 -92 585 -109 8 -1 -1 -32&#10;-27 -92 -68 -152 -89 -227 -108 -377 l-17 -142 -41 -12 c-71 -20 -207 -91&#10;-276 -144 -65 -49 -229 -226 -281 -303 -88 -129 -91 -316 -8 -445 43 -67 193&#10;-211 276 -264 204 -132 315 -172 565 -203 100 -13 176 -16 300 -12 157 5 175&#10;8 365 56 109 27 200 49 200 48 1 -1 10 -33 19 -70 21 -79 77 -169 132 -216 85&#10;-70 250 -132 443 -165 184 -31 279 -21 651 69 124 30 272 64 330 75 178 33&#10;372 77 440 100 67 22 269 120 338 163 21 14 73 53 115 87 l77 61 54 -58 c69&#10;-74 126 -105 246 -133 52 -12 120 -29 150 -37 189 -52 463 -53 880 -4 146 17&#10;317 40 381 51 64 11 181 29 260 40 297 40 457 85 652 181 115 57 161 91 268&#10;200 63 63 133 121 200 165 107 70 336 282 404 374 40 54 97 167 119 235 49&#10;153 61 457 26 660 -11 66 -27 144 -36 174 -28 98 -93 255 -138 333 -24 42 -41&#10;80 -38 83 3 3 13 5 23 5 26 0 140 102 251 225 286 317 451 687 498 1115 14&#10;130 5 596 -14 713 -76 473 -64 744 45 1010 50 121 139 279 191 339 39 45 48&#10;62 43 79 -7 20 -12 21 -69 15 l-61 -6 35 23 c146 99 391 186 610 217 41 5 201&#10;24 355 40 287 31 363 45 473 87 132 49 208 101 292 198 98 113 121 179 120&#10;350 0 160 -28 252 -133 428 l-46 77 43 0 c31 0 48 6 62 21 18 20 18 21 -2 57&#10;-25 44 -171 147 -314 220 -392 204 -766 222 -1253 61 -224 -74 -452 -196 -617&#10;-330 -80 -65 -80 -65 -69 -24 17 62 -6 94 -55 75 -50 -18 -219 -211 -330 -375&#10;-122 -179 -232 -470 -277 -729 -52 -303 -40 -565 47 -991 39 -189 89 -506 104&#10;-654 6 -53 24 -177 42 -276 28 -161 31 -202 32 -390 1 -221 -12 -342 -54 -525&#10;-38 -158 -186 -431 -335 -612 l-55 -67 -42 18 c-24 10 -74 33 -113 51 -334&#10;153 -616 209 -910 180 -64 -6 -119 -10 -121 -8 -2 3 18 33 45 69 52 69 81 133&#10;81 178 0 27 5 31 53 45 29 8 71 31 95 51 34 30 42 43 42 71 0 19 -10 51 -23&#10;72 -58 93 -148 289 -177 383 -18 57 -66 198 -106 312 -138 386 -232 747 -219&#10;835 25 165 145 564 235 780 66 161 233 635 326 927 52 165 95 366 126 595 33&#10;249 32 798 -2 1055 -13 98 -44 214 -69 263 -43 84 -125 133 -208 125 -125 -11&#10;-445 -162 -731 -345 -214 -138 -322 -224 -557 -448 -207 -198 -434 -387 -623&#10;-519 l-32 -22 -98 39 c-226 93 -569 191 -812 231 -500 82 -1032 115 -1515 92&#10;-382 -18 -789 -57 -1047 -101 l-113 -19 -114 117 c-412 423 -786 872 -930&#10;1119 -90 153 -208 330 -249 370 -69 70 -162 91 -233 53z m179 -372 c59 -107&#10;150 -244 277 -414 169 -225 334 -407 560 -617 168 -157 391 -390 514 -537 58&#10;-69 136 -157 175 -196 39 -38 113 -129 164 -202 52 -73 98 -134 103 -138 14&#10;-8 11 76 -6 141 -34 131 -147 323 -259 442 l-66 71 52 6 c49 5 109 8 433 21&#10;564 23 1094 25 1350 6 290 -22 640 -68 844 -112 307 -67 693 -209 1041 -384&#10;166 -84 445 -336 576 -520 241 -339 303 -528 409 -1255 57 -384 117 -654 212&#10;-945 69 -212 129 -361 181 -450 68 -116 209 -301 280 -367 34 -32 62 -64 62&#10;-72 0 -17 -91 -46 -145 -46 -84 0 -126 -55 -91 -121 13 -26 12 -29 -53 -91&#10;-65 -64 -148 -130 -226 -179 -92 -58 -355 -172 -570 -247 -402 -140 -508 -180&#10;-690 -258 -98 -42 -266 -105 -374 -141 -264 -87 -516 -182 -644 -242 -186 -87&#10;-457 -242 -457 -262 0 -17 29 -9 137 40 174 78 335 125 773 226 41 10 140 37&#10;220 61 80 24 220 61 311 84 202 49 264 69 634 203 334 120 442 164 540 216 82&#10;44 106 50 240 57 55 3 147 13 205 22 224 36 724 11 887 -43 256 -86 500 -295&#10;628 -537 48 -91 62 -133 91 -273 38 -182 33 -385 -12 -545 -36 -127 -139 -355&#10;-204 -450 -90 -133 -331 -352 -554 -504 -162 -111 -370 -189 -641 -241 -601&#10;-115 -498 -103 -1010 -126 -126 -5 -272 -14 -323 -18 -133 -11 -323 2 -396 28&#10;-116 41 -196 106 -196 159 0 30 149 113 309 172 148 54 434 118 651 145 284&#10;35 519 77 753 135 112 28 117 30 91 40 -12 5 -124 -4 -275 -21 -160 -19 -334&#10;-32 -469 -35 -196 -6 -223 -5 -302 15 -179 42 -346 154 -423 281 -35 57 -35&#10;58 -35 177 0 143 18 259 61 379 43 122 128 296 187 380 116 164 288 313 457&#10;394 227 110 572 186 930 205 61 3 121 8 134 11 37 8 8 22 -59 29 -30 3 -75 8&#10;-100 11 -95 11 -418 4 -531 -11 -362 -47 -633 -178 -879 -425 -96 -95 -157&#10;-173 -219 -274 -187 -306 -255 -594 -191 -809 40 -133 145 -323 210 -382 11&#10;-10 20 -21 20 -25 0 -8 -240 -94 -244 -88 -56 89 -87 113 -198 153 l-74 26 71&#10;70 c107 103 148 193 53 116 -60 -49 -142 -93 -234 -126 -68 -24 -99 -29 -224&#10;-34 -127 -5 -159 -10 -260 -40 -317 -96 -810 -293 -849 -341 -20 -24 -3 -21&#10;127 19 118 36 463 109 592 125 317 40 496 49 592 29 45 -9 218 -87 240 -107 4&#10;-4 -6 -27 -23 -51 -16 -25 -32 -62 -36 -83 -7 -45 -41 -74 -211 -180 -141 -88&#10;-209 -120 -387 -181 -274 -93 -753 -177 -1016 -177 -268 0 -496 49 -623 134&#10;-52 35 -66 52 -99 116 -36 70 -38 80 -34 146 6 113 53 200 257 474 205 276&#10;357 450 512 587 347 306 670 540 938 679 90 46 84 43 78 49 -6 7 -146 -40&#10;-253 -85 -183 -77 -503 -223 -585 -267 -187 -101 -365 -240 -550 -429 -182&#10;-186 -360 -426 -449 -601 -42 -84 -94 -226 -105 -284 l-6 -36 -88 14 c-221 35&#10;-375 113 -526 268 -173 176 -262 357 -295 600 -31 221 11 561 94 760 l16 37&#10;52 -6 c29 -3 115 -11 192 -16 77 -5 167 -12 200 -15 33 -2 128 -7 210 -10 83&#10;-4 215 -10 294 -16 78 -5 147 -6 152 -3 5 3 9 13 9 23 0 24 -41 34 -245 61&#10;-206 27 -555 84 -715 116 -191 40 -813 191 -923 225 -253 78 -786 299 -1132&#10;471 -306 151 -488 236 -554 259 -72 25 -135 25 -160 0 -20 -20 -20 -20 -39 12&#10;-11 18 -52 95 -91 172 -147 291 -193 329 -256 213 -16 -29 -30 -47 -32 -41 -6&#10;16 44 221 77 319 33 97 168 362 237 465 27 41 88 130 134 199 93 139 194 323&#10;260 475 24 55 67 141 97 190 29 50 76 136 105 192 29 57 54 103 57 103 7 0&#10;100 -218 161 -377 25 -68 54 -134 63 -148 18 -27 36 -33 37 -12 0 6 2 20 4 29&#10;5 25 -21 163 -49 259 -14 48 -57 167 -95 266 -107 274 -240 719 -263 878 -73&#10;511 -78 558 -78 710 0 271 19 356 189 847 65 188 156 461 201 605 46 145 85&#10;261 87 259 2 -2 -5 -46 -16 -97 -27 -126 -67 -361 -82 -484 -20 -163 -18 -646&#10;4 -785 63 -400 137 -603 482 -1320 62 -129 130 -281 151 -337 20 -57 42 -103&#10;47 -103 5 0 6 7 3 16 -3 8 -12 43 -20 78 -28 117 -78 261 -191 541 -152 377&#10;-192 507 -250 804 -53 277 -68 435 -69 731 -1 327 15 468 94 831 27 126 56&#10;271 64 322 16 97 46 237 51 237 2 0 21 -33 43 -72z m6890 -490 c50 -203 65&#10;-781 28 -1083 -35 -284 -135 -783 -201 -1005 -57 -190 -195 -593 -255 -748&#10;-27 -67 -51 -136 -55 -152 -11 -50 -22 -43 -30 18 -16 132 -77 408 -118 533&#10;-99 300 -197 459 -424 689 -84 85 -153 158 -153 162 0 12 174 339 228 428 177&#10;293 332 500 539 720 177 188 326 356 372 417 25 35 49 63 52 63 4 0 11 -19 17&#10;-42z m-58 28 c0 -2 -87 -83 -192 -179 -468 -424 -959 -972 -1112 -1239 l-27&#10;-48 -53 43 c-29 23 -101 80 -160 127 l-107 85 228 224 c362 355 538 499 848&#10;697 167 106 347 203 488 263 71 30 87 35 87 27z m3415 -942 c226 -31 423 -85&#10;579 -159 l71 -34 -40 -1 c-76 0 -83 -35 -30 -143 41 -85 72 -227 82 -374 14&#10;-231 -60 -338 -288 -414 -143 -48 -274 -69 -489 -79 -446 -21 -745 -111 -934&#10;-281 -82 -74 -215 -232 -217 -259 -4 -44 12 -63 46 -55 11 3 15 2 8 -1 -6 -3&#10;-36 -35 -66 -72 -103 -125 -167 -276 -204 -476 -26 -137 -23 -429 5 -556 55&#10;-253 112 -544 122 -620 13 -111 13 -323 -1 -452 -24 -221 -111 -427 -252 -593&#10;-112 -133 -242 -255 -358 -337 -53 -37 -101 -79 -107 -93 l-12 -26 -87 76&#10;c-47 42 -99 83 -115 93 -15 9 -28 19 -28 22 0 3 24 19 53 37 79 47 135 101&#10;214 205 85 111 106 152 177 340 62 166 91 277 105 398 5 47 15 107 21 135 11&#10;48 15 405 6 475 -3 19 -7 69 -11 110 -12 146 -56 321 -160 640 -111 340 -139&#10;491 -139 740 0 149 5 221 27 370 46 316 110 522 253 815 56 115 158 274 169&#10;263 3 -2 -4 -28 -15 -57 -23 -59 -16 -87 24 -97 29 -7 55 6 116 56 136 112&#10;285 202 450 272 125 54 198 75 365 110 229 47 430 54 660 22z m-9016 -6454&#10;c16 -104 67 -332 92 -410 55 -170 174 -314 361 -433 94 -60 258 -135 338 -156&#10;61 -16 70 -20 50 -26 -42 -10 -249 -22 -360 -19 -259 6 -373 31 -635 142 -64&#10;27 -238 147 -279 193 -71 78 -81 137 -42 243 37 99 69 141 205 273 69 67 155&#10;155 191 196 36 42 66 75 66 74 1 -1 7 -36 13 -77z"/>
<path d="M8053 8309 c-63 -20 -122 -71 -124 -107 0 -9 -2 -24 -4 -33 -5 -28&#10;31 -95 63 -118 17 -12 61 -29 98 -38 58 -14 81 -15 171 -5 149 17 193 45 200&#10;129 6 67 -21 107 -93 140 -123 56 -208 65 -311 32z"/>
<path d="M10645 8295 c-137 -24 -215 -74 -215 -139 0 -72 57 -106 177 -106&#10;152 0 273 55 273 125 0 95 -94 143 -235 120z"/>
<path d="M9792 8206 c-136 -26 -202 -65 -202 -118 0 -35 36 -59 135 -90 39&#10;-12 73 -25 77 -28 7 -5 40 -217 47 -302 1 -5 5 -8 10 -8 23 0 69 171 73 268 1&#10;39 7 49 59 99 31 30 63 68 69 84 15 36 6 75 -21 90 -33 17 -166 20 -247 5z"/>
<path d="M10326 7811 c-16 -3 -31 -11 -33 -17 -3 -8 47 -13 159 -17 316 -11&#10;593 -84 825 -218 111 -64 133 -70 133 -39 0 58 -310 196 -572 254 -178 39&#10;-420 57 -512 37z"/>
<path d="M9410 7771 c-202 -67 -419 -170 -566 -267 -162 -108 -424 -351 -424&#10;-393 0 -43 31 -29 132 60 265 233 438 340 958 592 43 21 55 39 28 44 -7 2 -65&#10;-15 -128 -36z"/>
<path d="M10319 7646 c6 -7 53 -34 104 -59 222 -110 403 -264 523 -447 19 -28&#10;37 -45 49 -45 52 0 -12 112 -139 244 -131 136 -279 235 -439 296 -77 29 -116&#10;33 -98 11z"/>
<path d="M9454 7571 c-239 -161 -472 -398 -647 -658 -98 -146 -155 -260 -203&#10;-405 -39 -121 -40 -157 -4 -138 11 6 20 17 20 24 0 7 38 90 85 183 167 337&#10;384 617 690 891 77 69 142 129 143 134 8 19 -30 5 -84 -31z"/>
</g>
</svg>