<?xml version="1.0" encoding="UTF-8"?>
<svg version="1.1" xmlns="http://www.w3.org/2000/svg" width="228" height="228">
<path d="M0 0 C3.89653407 0.68356039 7.79210084 1.37250304 11.6875 2.0625 C13.52586426 2.38661865 13.52586426 2.38661865 15.40136719 2.71728516 C22.88853338 4.04568186 30.35678582 5.45038329 37.81640625 6.92578125 C39.48148597 7.25207962 41.14660634 7.57817064 42.81176758 7.90405273 C45.26869465 8.3849326 47.72443659 8.86980441 50.17782593 9.36843872 C52.4863077 9.83737082 54.79736225 10.29103641 57.109375 10.7421875 C57.78863541 10.8846138 58.46789581 11.0270401 59.16773987 11.17378235 C65.23030239 12.33135081 71.10859542 12.09156437 76.859375 9.66015625 C77.82230469 9.2724707 77.82230469 9.2724707 78.8046875 8.87695312 C80.08687832 8.34013227 81.36815418 7.80111999 82.6484375 7.25976562 C92.67520412 3.23507743 103.11048836 2.63165232 113.8125 2.6875 C114.95251465 2.69313965 116.0925293 2.6987793 117.26708984 2.70458984 C129.75351109 2.88400776 140.78376652 4.9236934 152.19775391 10.10595703 C161.42266082 14.01226149 172.16464271 10.32967506 181.59375 8.49609375 C183.53136773 8.12530261 185.4689858 7.75451318 187.40662384 7.38382816 C190.09048778 6.86927167 192.77357311 6.35071786 195.45666504 5.83215332 C200.18635697 4.91865227 204.91702722 4.01024454 209.64807129 3.10377502 C212.16141869 2.62179716 214.67437112 2.13775427 217.18688965 1.651474 C218.31566528 1.43447342 219.44444092 1.21747284 220.60742188 0.99389648 C222.10106262 0.70530006 222.10106262 0.70530006 223.62487793 0.41087341 C226 0 226 0 228 0 C228.13161351 4.98196151 227.68348535 9.46851792 226.71484375 14.35302734 C226.57829376 15.05160355 226.44174377 15.75017975 226.30105591 16.46992493 C226.00600022 17.97529189 225.70797655 19.48007963 225.40725708 20.98432541 C224.93028109 23.37207549 224.46196214 25.76138265 223.99584961 28.15127563 C222.83674449 34.08607814 221.66497897 40.01835994 220.48986816 45.95001221 C219.495775 50.96833292 218.50839156 55.98787447 217.5305481 61.00938797 C217.07181066 63.35091326 216.60331029 65.69034658 216.13452148 68.02987671 C214.4271672 76.69943921 213.44828235 84.59269162 214.5 93.4375 C217.46388794 118.43725042 209.5448265 144.41203074 194.25390625 164.28125 C175.50520722 186.89666512 152.08786434 200.91056368 122.56640625 203.72265625 C97.02616205 205.70880887 71.36030152 198.54607011 51.0625 182.6875 C29.68790276 163.79832104 15.14317839 139.15714886 13.0859375 110.2578125 C12.87048879 104.59738733 12.81562428 99.06893445 13.5 93.4375 C14.64847258 83.79495416 13.29592602 75.16864572 11.40725708 65.74308395 C10.9289891 63.355958 10.46119335 60.96697788 9.99584961 58.57730103 C9.00664773 53.50799349 8.00370723 48.44145184 7 43.375 C5.83636756 37.49237719 4.67846697 31.60869063 3.5305481 25.7229805 C3.0707969 23.37825167 2.60292226 21.03524408 2.13452148 18.69223022 C1.8510372 17.24590028 1.56789735 15.79950276 1.28515625 14.35302734 C1.03644775 13.09888031 0.78773926 11.84473328 0.53149414 10.55258179 C-0.00316432 6.97884922 -0.09530702 3.60765323 0 0 Z M91 104 C92.52443373 112.63134463 92.52443373 112.63134463 97 120 C98.40315065 120.67469504 99.82118048 121.31901805 101.25 121.9375 C103.34375 123.08984375 103.34375 123.08984375 105 125 C105.50319212 127.83045569 105.74873345 130.16577256 105.75 133 C105.75290039 133.70116943 105.75580078 134.40233887 105.75878906 135.12475586 C105.55472641 139.96780461 104.42310626 142.60263138 101 146 C97.28977078 147.85511461 93.04967665 147.44642105 89 147 C84.96115805 144.89643648 84.19827729 143.56650655 82.6875 139.25 C82.460625 138.1775 82.23375 137.105 82 136 C77.38 136 72.76 136 68 136 C68.24604776 143.6274805 70.12394351 149.04374052 75 155 C82.15953828 161.02523324 88.0746227 162.39770063 97.33984375 162.359375 C102.69077098 161.83399047 106.49511623 159.78391694 111 157 C112.32688855 156.32059658 113.65827542 155.64961326 115 155 C115.680625 155.598125 116.36125 156.19625 117.0625 156.8125 C124.40612814 162.28115925 130.95474693 162.99651093 140 162 C146.42954481 160.16164041 152.13166398 156.90990296 155.80078125 151.1953125 C156.54908203 149.67550781 156.54908203 149.67550781 157.3125 148.125 C157.82425781 147.11695313 158.33601563 146.10890625 158.86328125 145.0703125 C160.34719778 141.60787149 160.34719778 141.60787149 160 136 C155.38 136 150.76 136 146 136 C145.773125 137.0725 145.54625 138.145 145.3125 139.25 C143.80172271 143.56650655 143.03884195 144.89643648 139 147 C134.02369138 147.79391766 130.28482177 147.78662558 125.9375 145.125 C121.77139283 140.55572117 122.3077228 134.68415908 122.453125 128.7890625 C123 125 123 125 124.609375 123.1484375 C126.6875 122.0625 126.6875 122.0625 128.890625 121.12109375 C132.84083942 119.02162794 134.42029668 115.03167761 136 111 C136.58771805 108.60088228 136.8418719 106.47734026 137 104 C128.7331314 102.93516976 128.7331314 102.93516976 121.21484375 105.30078125 C120.0128978 107.10088509 120.0128978 107.10088509 119 110 C118 111 118 111 114.125 111.25 C110.29288321 111.19525547 110.29288321 111.19525547 108.125 109.75 C106.94536975 107.91501961 105.97556963 105.95113927 105 104 C100.38 104 95.76 104 91 104 Z " fill="#E841E8" transform="translate(0,12)"/>
</svg>
