<svg version="1.1" viewBox="0 0 2048 2048" width="50" height="50" xmlns="http://www.w3.org/2000/svg"><path transform="translate(949,1)" d="m0 0 6 3 17 16 25 25v2h2l7 8 16 16 11 14 14 15 10 13 11 13 6 8 11 14 10 15 11 16 6 8 9 15 11 17 12 22 6 10 17 34 8 20 10 26 7 26 4 15 2 11 3 8 3 5 13 10 7 7 14 11 6 5v2l4 2 10 10 8 10 9 11 7 7 10 13 9 12 11 15 18 30 9 16 9 17 12 29 4 15 4 20 2 16 2 12 2 29 2 16v51l-1 11-1 2-3 25-4 27-6 26-4 20-1 9 5-3 4-3 4-1h16l11 4 11 6 14 12 15 16 8 13 6 14 5 13 2 16v15l-2 12-7 14-8 10-10 9-16 8-11 3-10 1-2 19-2 10-2 15-2 7-2 12-5 18-6 23-10 24-8 14-9 10-8 5-11 6v12l2 8v87l-1 10-1 1-2 62-2 12-2 31-5 41-2 10-7 43-7 34-4 17-5 18-11 35-4 18-10 23-9 20-11 23-5 12-8 13-13 26-10 19-9 16-10 18-8 16-9 16-7 12-7 14-6 9-10 19-7 11-11 20-8 13-12 21-8 15v6l6 5 5 4 10 13 6 10-1 4h-98l-2-5-1-81-2-9-2-31-2-11-12 1h-35l-14-2-8-2-9-1-2 6-13 25-8 12-8 13-14 22-7 10-7 11-1 4 16 16 10 17-1 4-4 4h-6l-3-2-87-1-3-2-3-26-4-25-4-20-8-36-6-20-3-9-10-26-5-4-8 3-13 1h-36l-13-1-10-3-9-2-15-7-12-5-11-7-11-9-8-6-6-5-5-5-9-10-4-6-7-8-2-6v-5h10l6 2h55l4-2 13-2 3-2 11-3 6-2 7-3 14-7 3-2-1-6-10-26-9-23-9-24-10-35-1-8-5-1-2 5-6 11-4 1-1-1-1-9-1-27-1-8-1-1-1-40v-47l-4 4-9 27-7 1-1-2 1-109 1-28 2-8-1-5-3 1-11 23-4 5-3 1-2-2 1-14 1-20 2-11 2-33 2-7 2-42 2-5v-78l-1-13-1-1v-15l2-6 2-98 2-5 1-12 1-25 3-16 1-13 2-9 1-13 1-38 3-13 5-26 9-27 7-15 2-4v-7l-8-20-6-13-12-36-3-13-2-16v-53l1-14 3-11 1-11 5-16 3-16 6-14 5-13 9-22 20-40 7-10 4-8-1-7-18-18-9-13-11-19-11-23-7-15-18-40-7-17-7-15-10-23-11-26-8-16-9-19-4-9-6-12-6-10-7-14-10-16-10-13-7-9-6-5-10-8-11-7-4-5 3-7 5-3 7-1 3-2h30l6 2 20 3 20 4 15 4 12 5 23 9 20 9 32 16 22 14 12 8 11 8 16 12 20 18 8 6 10 9 26 26 9 12 11 12 10 13 2 4 6 1 9-2 24-8 16-4 20-4 9-2 11-2 9-2 14-3 28-2 4-3 1-4-2-11-1-2-2-34-2-12-2-31-2-11-2-40-2-8-2-29-2-7-2-23-2-5-2-24-2-4-2-16-2-4-2-12-2-4-3-13-5-14v-4l3-2z" fill="#F08382" /><path transform="translate(1075,574)" d="m0 0h11l1 6h2l4 9 7 8 12 12 16 12 14 8 13 6-1 4-8 7-7 7-10 8-14 8-15 6-14 3-8 1h-10l-16-2-27-9-25-11h-3l3 5 11 8 9 7 14 7 1 5h2l4 13 2 9h2l10 19 9 12 9 11 10 8 16 8 4 1h7l10-3 10-6 10-10 13-18 8-14 4-10 3-6h2l2-6 9-19 3-2 16-1 3-1-5-4-12-7-13-12-7-9 1-4 8-2 12-5 9-6 13-11 7-7 10-13 4-5h11l18 2 34 1 1 1v15l-3 12v8l11 13 9 12 10 14 9 14 12 19 8 16 5 16 4 20 6 9v2l7 1 2-44-2-11-2-28-1-23-2-6v-14h1l2 16 2 12 2 29 2 16v51l-1 11-1 2-3 25-4 27-6 26-4 20-1 9 5-3 4-3 4-1h16l11 4 11 6 5 5-5-1-4-4-6-2h-3v-2l-6-1h-20l-10 5h-2l-2 4-5 3-5 5-4 5-3 5h-2v2h-2l-2 6-7 10-6 11-4 8h-2l-2 6-3 5-1 4-7 12-1 4h-2l-2 7-9 17-4 9-3 9h-2l-1 6-6 15-3 8-4 10-3 11-2 5-2 11-1 1-4 21-3 18-5 9-4 8-7 11-3 5h-2l-1 4-14 24-8 13h-2l-1 4-5 8h-2l-1 4-10 15-7 10-8 11-13 19-9 11-10 14-9 11h-2l-2 5-6-1-20-9-27-15-23-15-11-7-11-8-28-21-10-8-11-9-13-11-11-9-12-11-8-7-10-9-8-7-10-10-8-7-12-12-16-14 1-6 11-22 5-12 3-7 4 1 9 4h28l12-5 11-7 6-5 10-13 6-14 3-10v-22l-4-17-6-16-9-17-10-13-9-9-13-8-13-4h-8l-14 7-17 10-19 13-11 9-8 7-10 9-6 5-5-2-8-7-9-11-7-7v-2h-2l-6-8-9-11-1-2v-9l5-29 8-31 8-23 9-22 8-16 6-11 7-11 3-6 8-12 13-19 9-13h2l2-5 11-12 8-10 10-10 7-8 18-18 8-7 14-12 17-14-1-3-9-7-7-8-7-12v-1l59-7 35-6 40-8z" fill="#F7CDCB" /><path transform="translate(552,190)" d="m0 0h9l27 4 24 7 16 6 15 6 16 8 27 15 16 10 16 11 12 9 16 13 8 6v2l4 2 13 12 21 21v2l3 1 9 11 9 10 9 11 3 3 1 5-8 8-5 6-6 4h-3v2l-4 1v3l-6 5h-2v3l-4 1-1 4-10 10-8 11h-2l-1 4-4 4h-2l-1 4-5 5-6 7-7 8-2 3h-2l-1 4-8 11-5 5-7 11-4 4-4-1-5-5-8-9-6-11-6-9-6-12-2-5-3-6-5-11-6-16-5-10-10-25-4-9-6-16-4-9-5-12-2-7-3-5-6-16-4-8-5-12-14-28-8-15-5-7v-2h-2l-3-5-5-7-2-1v-3l-5-2-9-7-8-6-1-4z" fill="#E65251" /><path transform="translate(1230,589)" d="m0 0h11l18 2 34 1 1 1v15l-3 12v8l11 13 9 12 10 14 9 14 12 19 8 16 5 16 4 20 6 9v2l7 1 2-44-2-11-2-28-1-23-2-6v-14h1l2 16 2 12 2 29 2 16v51l-1 11-1 2-3 25-4 27-6 26-4 20-1 9 5-3 4-3 4-1h16l11 4 11 6 5 5-5-1-4-4-6-2h-3v-2l-6-1h-20l-10 5h-2l-2 4-5 3-5 5-4 5-3 5h-2v2h-2l-2 6-7 10-6 11-4 8h-2l-2 6-3 5-1 4-7 12-1 4h-2l-2 7-9 17-4 9-3 9h-2l-1 6-6 15-3 8-4 10-3 11-2 5-2 11-1 1-4 21-3 18-5 9-4 8-7 11-3 5h-2l-1 4-14 24-8 13h-2l-1 4-5 8h-2l-1 4-10 15-7 10-8 11-13 19-9 11-10 14-9 11h-2l-2 5-6-1-20-9-27-15-23-15-11-7-11-8-28-21-10-8-11-9-13-11-11-9-12-11-8-7-10-9-8-7-10-10-8-7-12-12-16-14 1-6 11-22 5-12 3-7 4 1 9 4 21 1v1l-15 1 6 8 9 9v2h2l7 8 9 9 7 8 15 16 18 18 7 8 13 12 17 17 8 7 14 13 14 11 9 8 18 13 21 13 14 7 4 1 1-4 38-57 12-20 7-11 21-35 13-22 6-12 15-25 6-11 10-18 8-16 9-19 8-16 11-23 12-28 6-15 5-12 7-18 10-30 7-23 5-21 3-13 6-29 5-38 1-13v-11l-3-9-4-9-11-19-8-13-11-16-14-19-12-15-1-7 5-16v-11h-29l-23-2-9-2z" fill="#F7A4A5" /><path transform="translate(1131,547)" d="m0 0h44l34 3 17 4 8 4 3 5v9l-4 11-10 13-11 13-10 10-16 12-13 5-8 1 2 5 8 10 11 10 15 9 3 4-4 1-16 1-3 3-11 23h-2l-2 6-7 16-8 12-8 11-9 10-8 7-11 5-5 1h-7l-11-4-12-7-11-10-13-17-9-16-2-6h-2l-3-9-3-10v-3h-2l-2-5-16-8-12-10-5-3-3-3-1-4 6 1 23 10 27 9 16 2h10l18-3 17-6 15-8 9-8 8-7 7-7h2v-4l-14-6-16-10-14-11-13-13-6-7-4-12v-13l2-4 6-5 13-4 12-2z" fill="#881112" /><path transform="translate(989,85)" d="m0 0 5 1 14 12 19 19 7 8 2 4h2l9 11 11 13 13 17 13 18 9 13 9 14 12 19 11 19 16 31 10 23 10 26 8 26 1 12-9-3-13-8-11-8-15-10-13-6-3-1v-2l-6-1-16-7-10-3-17-2-28-1-8-2-2-6-3-29-3-39-1-4-2-30v-8l-2-6-2-25-3-19-1-13-7-25-3-9-3-14z" fill="#E65251" /><path transform="translate(1091,586)" d="m0 0 3 1 10 10 9 8 16 12 12 6 14 9 5 3-1 3-5 3-9 9h-2v2h-2v2l-4 3h-2l1 8 6 12 4 15v11l-4 16-5 14-9 15-4 5-3 3-1 2 9-2 9-8 7-8 1-2h2l2-5h2l2-4 1 2-11 16-11 12-9 7-9 4-5 1h-7l-11-4-12-7-11-10-13-17-9-16-2-6h-2l-3-9-3-10v-3h-2l-2-5-16-8-12-10-5-3-3-3-1-4 6 1 23 10 27 9 16 2h10l18-3 17-6 15-8 9-8 8-7 7-7h2v-4l-14-6-16-10-14-11-13-13-6-7z" fill="#E83031" /><path transform="translate(553,192)" d="m0 0h8l18 2 14 4 17 4 14 5 11 5 17 8 10 5 23 13 10 6 12 8 10 7 13 10 7 6 5 3 14 13 3 1 5 5 1 3 4 2 10 9 7 8 6 7 4 3v2l3 1 11 14 9 10 4 8-7 6-5 6-5 4-6-1-10-13v-2h-2l-11-14-3-3v-2l-3-1-3-4v-2l-4-2-7-8-1-3-3-1-5-5-4-5-7-6-5-5-7-6-4-4v-2l-4-2-8-7-3-1-5-5-9-7-7-5v-2l-4-1-11-7-9-6-9-5-7-4v-2l-5-1-16-8-9-4-27-9-13-5-6-2-7-3-7-5-3-1-1-4z" fill="#E92F30" /><path transform="translate(992,91)" d="m0 0h6l13 13v2l4 2v2l4 2v2l3 1 4 4v2l4 2 5 6v2l3 1 11 14 5 5 21 28 14 19 10 15 10 16 8 14 10 18 8 16 8 15 4 12 5 11 9 24 4 13 3 10-2 4-4-1-6-4-8-4v-2h-2v-2l-4-1-5-6-5-11-2-5v-4h-2l-5-14-15-33-12-24-13-23-15-25-6-8-7-10-10-14-3-4v-3l-4-2-6-10-5-5-3-4v-3l-4-2-2-4-2-1-1-3-5-5-10-14-4-7-4-14z" fill="#E92F30" /><path transform="translate(1171,647)" d="m0 0 8 6 1 3h2v2l4 2 11 7 10 6v3l-6 2-16 2-4 14-6 16-9 21-10 19-4 6-8 10-9 8-14 8-11 3h-12l-15-4-9-4-10-7-8-7-9-11-11-18-8-16-6-14-8-28-6-7 4 2 10 7 12 6 1 5h2l4 13 2 9h2l10 19 9 12 9 11 10 8 16 8 4 1h7l10-3 10-6 10-10 13-18 8-14 4-10 3-6h2l2-6 9-19 3-2 16-1 3-1-5-4-12-7-13-12z" fill="#F6A2A3" /><path transform="translate(911,663)" d="m0 0 2 1-22 22-7 8-7 7-8 10-9 10-2 4h-2l-2 5-6 8-13 19-8 12-7 12-9 16-11 23-9 23-7 22-7 28-4 25v9l4 6 9 10 2 5h2l7 8 9 10 5 6 6 4 5-2 7-7h2l1-3 8-7 13-10 11-8 6-4 2 1-12 9-11 9-10 9-13 12-10 8-5 2-5 6-6 5-2 3h-2l-2 4h-2l-2 4-3 1-4 5h-2v2h-5l-3-11-2-14-1-16v-29l1-13-1-4v-12l8-40 6-22 7-22 5-12 9-20 9-17 3-6 12-19 4-6h2l1-4 8-11 26-32 14-15z" fill="#F7A4A5" /><path transform="translate(1084,714)" d="m0 0 17 1 11 2 21 6 2 2-1 8-4 8h-2l-2 5-3 3h-2l-1 3-9 5-7 1-10-2-8-4-10-9-8-8-9-14-1-4z" fill="#E65251" /><path transform="translate(949,1)" d="m0 0 6 3 17 16 25 25v2h2l7 8 16 16 11 14 14 15 10 13 11 13 6 8 11 14 10 15 11 16 6 8 9 15 11 17 12 22 6 10 17 34 8 20 10 26 2 6-1 4-4-8v-7l-3-1v-3h-2l-3-10-4-10-5-11-5-12-9-17-9-19-7-11v-2h-2l-6-11-4-6v-3h-2l-6-11-7-10-7-11-7-10-1-3h-2l-7-11-7-8-1-3-4-4-3-5-4-4v-3l-4-2-4-5-3-5-5-5-4-5v-2l-4-2-4-5v-2l-4-2-7-8-9-10-4-4-1-3-7-6-5-6-8-7-6-5-4-4-1-3-5-1-3-4v-2h-2v-2l-6-2-1-2-3-3h-8l2 6 1 9 2 8v13l-2-2-2-12-2-4-3-13-5-14v-4l3-2z" fill="#F7AAAA" /><path transform="translate(1131,547)" d="m0 0h44l34 3 17 4 8 4 3 5v9l-4 11-10 13-11 13-10 10-16 12-13 5h-8l2-2 10-4 13-7 13-10 11-11 14-16 6-12 1-7-1-6h-2v-2l-13-2-3 3h-2l-1 5-8 3-13 2h-15l-15-2-9-3-1-5 3-3 12-5 1-1-9-1h-30l-19 2-14 4-4 1 3-3 13-4 12-2z" fill="#E83132" /><path transform="translate(952,421)" d="m0 0h18l7 3-1 5-9 5-11 7-8 6-2 4-7 6-4 3h-3l-1 3-3-1v2l-9 3-7-1-4-3-1-7 2-8 5-7 13-10 12-6z" fill="#F7A4A5" /><path transform="translate(501,156)" d="m0 0h30l6 2 20 3 20 4 15 4 29 12-3 1-21-8-18-5-20-5-10-2-20-2h-22l-7 1-8 1-1 6 1 4 6 3 11 9 11 11 6 8 4 5 9 14 4 7 1 4 4 2 4 10 3 5 1 4h2l4 8 5 9 4 11 2 5 5 11 8 16 4 10 4 9 11 27 5 10 3 7 5 11 1 5 7 13 3 7 5 10 3 9 5 10 5 9 4 8 1 5h2l2 6 3 2 5 11 5 9 2 4h2l2 3v3l4 2 5 6 3 5 7 8v3h-2l-3-6-17-17-9-13-11-19-11-23-7-15-18-40-7-17-7-15-10-23-11-26-8-16-9-19-4-9-6-12-6-10-7-14-10-16-10-13-7-9-6-5-10-8-11-7-4-5 3-7 5-3 7-1z" fill="#F7ADAD" /><path transform="translate(1146,415)" d="m0 0h9l14 2 10 2 16 8 9 6 3 3 2 7-2 5-5 3h-10l-8-3-3-2v-2l-4-2-17-9-6-1-6-2-12-3-3-3 1-4 9-4z" fill="#F7A4A5" /><path transform="translate(639,189)" d="m0 0 6 2 34 17 22 14 12 8 11 8 16 12 20 18 8 6 10 9 26 26 9 12 11 12 10 13 2 4 6 1 9-2 5-2h5l-3 2-5 2h-3l-1 3-5 3h-6l-7-7v-2l-3-1-4-6v-2l-3-1-5-7-8-7-3-3-3-5-3-3v-2l-3-1-5-6-7-6-6-7-2-1v-2l-4-2-9-9-6-5v-2h-3l-5-5-10-8v-2l-5-2-1-3-4-1-12-9v-2h-4v-2l-5-2-4-4-8-4v-2l-3-1v-2l-5-1-3-2v-2l-4-1-15-9-3-3-10-4-5-3v-2l-6-2z" fill="#F7ADAE" /><path transform="translate(968,472)" d="m0 0 7 1 5 4 2 7h2l6 21v6l-12 4-15 3h-6v-29l5-13z" fill="#881112" /><path transform="translate(1160,457)" d="m0 0h7l5 8 3 10v23l-5 1h-17l-6-3-2-3 1-12 4-13 5-7h2v-2z" fill="#881112" /><path transform="translate(963,83)" d="m0 0h2l4 25 2 13 2 18 1 4 2 23 1 3 1 13 3 35 4 48 1 4 1 25 3 17v11l-2 2-13 2-30 3-10 2h-8l4-2 9-2 14-3 28-2 4-3 1-4-2-11-1-2-2-34-2-12-2-31-2-11-2-40-2-8-2-29-2-7-2-23-2-5z" fill="#F7B0B0" /><path transform="translate(1019,1899)" d="m0 0h1l3 20 2 29 2 70 87-1 3-1-1-5-2-2-2-6-5-5-2-1v-2l-3-1-5-5-4-5v-5l4-5 2 1-2 4v6l6 5 5 4 10 13 6 10-1 4h-98l-2-5-1-81-2-9z" fill="#FAE6E5" /><path transform="translate(1324,1205)" d="m0 0h1l1 11 2 8v87l-1 10-1 1-2 62-2 12-2 31-3 23h-1v-15l2-14 2-31 2-26 1-46z" fill="#F7B8B7" /><path transform="translate(1417,894)" d="m0 0 7 6 12 13 8 13 6 14 5 13 2 16v15l-2 12-7 14-8 10-10 9-16 8-11 3h-9v-2l15-2 16-8 5-4h2v-2l4-1 2-4 7-10 5-9 2-9 2-20-2-11-2-10-9-18-6-11-8-11-9-11z" fill="#F7AFAF" /><path transform="translate(617,393)" d="m0 0h2l7 13 3 7 5 10 3 9 5 10 5 9 4 8 1 5h2l2 6 3 2 5 11 5 9 2 4h2l2 3v3l4 2 5 6 3 5 7 8v3h-2l-3-6-17-17-9-13-11-19-11-23-7-15-9-20-8-17z" fill="#F7A9AA" /><path transform="translate(501,156)" d="m0 0h30l6 2 20 3 20 4 15 4 29 12-3 1-21-8-18-5-20-5-10-2-20-2h-22l-7 1-8 1-5 4 2 6 10 6 10 8 4 4-1 2-13-10-9-6-6-5-1-3 3-6 5-3 7-1z" fill="#F8D0CE" /><path transform="translate(979,227)" d="m0 0h1l2 27h2l2 15 1 25 3 17v11l-2 2-13 2-30 3-10 2h-8l4-2 9-2 14-3 28-2 4-3 1-4-2-11-1-2-2-34-2-12-1-16z" fill="#F7B9B8" /><path transform="translate(879,1976)" d="m0 0v3l-1 4 16 16 10 17-1 4-4 4h-6l-3-2-87-1-3-2 1-4 3 3h95l-1-6-9-14-11-12-2-2v-5z" fill="#F8CECC" /><path transform="translate(1091,586)" d="m0 0 3 1 10 10 9 8 16 12 12 6 14 9 5 3-1 3-5 3-9 9h-2v2h-2v2l-4 3-2-1 17-17h2v-4l-14-6-16-10-14-11-13-13-6-7z" fill="#E83435" /><path transform="translate(1139,237)" d="m0 0h3l9 16 16 32 8 20 10 26 2 6-1 4-4-8v-7l-3-1v-3h-2l-3-10-4-10-5-11-5-12-9-17-9-19z" fill="#F7ACAC" /><path transform="translate(1231,557)" d="m0 0 4 2 2 4v9l-4 11-10 13-11 13-10 10-16 12-13 5h-8l2-2 10-4 13-7 13-10 11-11 14-16 6-12 1-7-1-6h-2z" fill="#E83435" /><path transform="translate(1161,455)" d="m0 0 7 1 5 8 3 9 1 6v14l-1 8h-27l-6-3-1-1 1-12 4-15 6-9 6-5zm-1 2-3 2v2h-2l-6 9-3 11-1 12 4 4 4 2h20l2-2v-22l-3-10-5-8z" fill="#E8393A" /><path transform="translate(1097,1974)" d="m0 0 2 1-2 4v6l6 5 5 4 7 9 3 7 3 5v4l-7 1-88-1-1-1v-36h1l1 36 87-1 3-1-1-5-2-2-2-6-5-5-2-1v-2l-3-1-5-5-4-5v-5z" fill="#F7A4A5" /><path transform="translate(1417,894)" d="m0 0 7 6 12 13 8 13 6 14 5 13 1 5v13l-2-2-2-11-2-10-9-18-6-11-8-11-9-11z" fill="#F7AEAF" /><path transform="translate(1168,645)" d="m0 0 13 13 13 9 8 5 2 3-4 1-16 1-3 3-9 19-1-3 8-18 5-5h2l-1-7-5-5-10-11z" fill="#E83334" /><path transform="translate(1142,630)" d="m0 0 5 1 8 4-1 4-8 7-7 7-10 8-14 8-15 6-14 3-8 1h-10l-16-2-3-2 16 1h11l14-1 21-7 18-10 10-9 8-7 4-4 1-3-7-2z" fill="#F2908F" /><path transform="translate(1197,383)" d="m0 0 2 1 3 10 11 9 8 7 10 9 9 7 4 3v2l4 2 10 10 6 7-1 2-15-14-11-12-6-3-6-7-7-5v-2l-4-1-14-11-1-3h-2l-1-9z" fill="#F7AFAF" /><path transform="translate(489,163)" d="m0 0 2 1v7l10 6 13 12 8 9 8 10 9 14 4 7 1 4-2 1-7-12-10-14-10-13-6-8-10-8-11-7-2-6z" fill="#F7B0B0" /><path transform="translate(1356,868)" d="m0 0h1l-1 14 5-3 4-3 4-1h16l11 4 11 6 5 5-5-1-4-4-6-2h-3v-2l-6-1h-20l-14 7h-2l1-8z" fill="#F7AEAF" /><path transform="translate(1115 2e3)" d="m0 0 5 5 4 7-1 4h-91v-2h89l-3-7-3-5z" fill="#F9DAD8" /><path transform="translate(1323,1318)" d="m0 0h1v66l-2 12-2 31-3 23h-1v-15l2-14 2-31 2-26z" fill="#F7AEAE" /><path transform="translate(794,1970)" d="m0 0 2 2 2 15 3 16 1 11 1 2 4 1h87l2-1-1-9 3 3 2 4-1 5h-95l-4-4-6-41z" fill="#F7AAAB" /><path transform="translate(578,1772)" d="m0 0h10l6 2 55 1v1l-17 2h-20l-21-1h-13z" fill="#F9D7D6" /><path transform="translate(1171,647)" d="m0 0 8 6 1 3h2v2l4 2 11 7 10 6v3l-2 1-22 2-10 22-4 7h-2l-2 6-3 3 2-6 4-8h2l2-6 9-19 3-2 16-1 3-1-5-4-12-7-13-12z" fill="#F18A8A" /><path transform="translate(507,159)" d="m0 0h22l20 2 26 6 15 4 9 3-3 1-7-1-21-6-16-3-30-4h-9l-9 1v-2z" fill="#F7A4A5" /><path transform="translate(1037,680)" d="m0 0h5l4 15 2 6v7l-3 2v-2h-2l-3-9-5-14z" fill="#891112" /><path transform="translate(949,1)" d="m0 0 6 3 17 16 25 25-1 2-13-12-10-8-9-11-10-7-7-3z" fill="#F9DAD9" /><path transform="translate(1367,638)" d="m0 0h1l2 16 2 12 2 29 2 16v16h-1l-3-18-2-28-1-23-2-6z" fill="#F7B9B9" /><path transform="translate(1044,711)" d="m0 0 3 4 8 15 9 12 9 11 3 4-5-2v-2l-6-2v-2h-2v-2h-2l-6-8-2-6-3-3-1-5h-2l-3-9z" fill="#F08382" /><path transform="translate(1227,590)" d="m0 0 3 1-8 9-8 10-9 9-16 12-11 5-5 2-8 2v-4l12-2 12-6 16-13 10-10 8-10z" fill="#F28D8D" /><path transform="translate(611,1364)" d="m0 0h1v16l-1 9-1 1v19l3 1v2h2v-2h2l-2 6-4 5-3 1-2-2 1-14 1-20 2-11z" fill="#F7B4B4" /><path transform="translate(879,1976)" d="m0 0v3l-1 4 16 16 10 17-1 4-4 4h-6l-3-3h8l1-7-7-12-9-11-7-7v-5z" fill="#F9DAD9" /><path transform="translate(651,1614)" d="m0 0h1l2 15v7l5 1 2-6 5-9 4 1v5h-5l-2 5-6 11-4 1-1-1-1-9z" fill="#FAE3E2" /><path transform="translate(963,83)" d="m0 0h2l4 25 2 13 1 18-2-2-2-7-2-23-2-5z" fill="#F7B0B1" /><path transform="translate(1153,733)" d="m0 0 1 2-4 8h-2l-2 4-6 8h-2v2h-2v2h-2v2h-2v2l-10 6-9 3h-11l-14-5-2-1v-2l6 2 11 4h7l10-3 10-6 10-10z" fill="#F08382" /><path transform="translate(1161,455)" d="m0 0 7 1 5 8 3 9 1 6v14l-2 3-1-21-3-10-4-7h-7l-3 1v2h-2l-6 12-3 7-1-3 4-11 8-9z" fill="#E73C3D" /><path transform="translate(647,1514)" d="m0 0h1l1 40 2 40v14h-1l-1-8-1-1-1-40z" fill="#F9D9D7" /><path transform="translate(979,227)" d="m0 0h1l2 27h2l2 15 1 24-2 1-1-11-1-3-2-20-1-4-1-16z" fill="#F7B8B8" /><path transform="translate(491,159)" d="m0 0 4 1-8 6 2 6 10 6 10 8 4 4-1 2-13-10-9-6-6-5-1-3 3-6z" fill="#F9D9D7" /><path transform="translate(645,1507)" d="m0 0h2v5l-4 4-9 27-7 1-1-2v-14h1l1 14h3l3-10 7-17z" fill="#FAE7E6" /><path transform="translate(1142,630)" d="m0 0 5 1 8 4-1 4-8 7-7 7-10 8-12 7-4-1 16-9 10-9 8-7 4-4 1-3-7-2z" fill="#F39595" /><path transform="translate(656,847)" d="m0 0h2l1 5h2v8l-7 15-3 7-8 24-2 5-1-4 9-27 7-15 2-4v-7z" fill="#F7B3B3" /><path transform="translate(599,350)" d="m0 0 3 3 5 10 4 11 3 4 4 11v4h-2l-7-17-7-15-3-7z" fill="#F7ABAC" /><path transform="translate(1019,1899)" d="m0 0h1l3 20 2 29v22h-1l-1-8-1-27-2-9z" fill="#F8C3C2" /><path transform="translate(580,1780)" d="m0 0 4 2 7 10 1 3 4 2 4 6 18 18-5-2-8-7-5-5-9-10-4-6-7-8z" fill="#F8D2D0" /><path transform="translate(552,190)" d="m0 0h9l16 2 2 2h-13l-13-2-1 5 1 3-5-2-3-3 1-4z" fill="#E65050" /><path transform="translate(1245,1703)" d="m0 0h2l-3 9-7 14-6 10-7 14-1-3 9-19 6-11z" fill="#F7B7B7" /><path transform="translate(763,271)" d="m0 0 4 2 12 11 25 25 6 8-1 2-10-11-7-8-21-21-8-6z" fill="#FAE1E0" /><path transform="translate(570,164)" d="m0 0 9 2 13 3 29 12-3 1-21-8-18-5-8-2z" fill="#F9DAD9" /><path transform="translate(1322,1386)" d="m0 0h1v7l-1 3-2 31-3 23h-1v-15l2-14 2-30z" fill="#F7B7B7" /><path transform="translate(1097,1974)" d="m0 0 2 1-2 4v6l6 5 5 4 7 9-1 2-5-6-4-2v-2l-3-1-5-5-4-5v-5z" fill="#F7B7B7" /><path transform="translate(1236,423)" d="m0 0 8 6v2l4 2 10 10 6 7-1 2-15-14-12-13z" fill="#FADDDC" /><path transform="translate(949,1)" d="m0 0 6 3 17 16 2 3-4-2-11-9-8-5-4-2z" fill="#FDFDFD" /><path transform="translate(1175,307)" d="m0 0 2 3 8 21 2 6-1 4-4-8v-7l-3-1v-3h-2l-3-10z" fill="#F7AEAE" /><path transform="translate(629 1e3)" d="m0 0h1v9l-3 26-1 3-1 17h-1v-23l3-16 1-13z" fill="#F8C3C3" /><path transform="translate(954,324)" d="m0 0h15v1l-11 1-5 2-18 3h-8l4-2 9-2z" fill="#F8C4C4" /><path transform="translate(1448,943)" d="m0 0h3l4 10 1 5v13l-2-2-2-11-2-10z" fill="#F7A9AA" /><path transform="translate(879,1976)" d="m0 0v3l-1 4 16 16 3 5v2l-4-2-8-11-9-9v-5z" fill="#F8D4D3" /><path transform="translate(651,1614)" d="m0 0h1l2 15v7l4 1-2 5h-3l-2-7z" fill="#F7B1B1" /><path transform="translate(618,1175)" d="m0 0h1v35h-1l-1-13-1-1v-15z" fill="#F9D2D2" /><path transform="translate(501,156)" d="m0 0h30l6 2v1l-25-1-14 1z" fill="#FDFDFD" /><path transform="translate(944,7)" d="m0 0 2 1 2 6v4h2l4 15 1 9-3-4-3-13-5-14z" fill="#FAE8E7" /><path transform="translate(875,1979)" d="m0 0h1l2 6 9 9 7 10h-3l-12-14-4-3-1-6z" fill="#F7A4A5" /><path transform="translate(1231,557)" d="m0 0 4 2 2 4v9l-4 11-5 5 2-5 4-9 1-7-1-6h-2z" fill="#E73C3D" /><path transform="translate(639,189)" d="m0 0 6 2 22 11-4 1-10-4-5-3v-2l-6-2z" fill="#F8C5C4" /><path transform="translate(1178,686)" d="m0 0 1 2-9 19-3 1-2 6-3 3 2-6 4-8h2l2-6 5-10z" fill="#ED6867" /><path transform="translate(1175,496)" d="m0 0h1v5h-19l-3-2 9-1h12z" fill="#E83031" /><path transform="translate(856,347)" d="m0 0h5l-3 2-15 6-5-1-2-4 6 1 9-2z" fill="#F8D6D5" /><path transform="translate(941,1877)" d="m0 0 19 4 5 1v2l-10-1-8-2-8-1z" fill="#F7B5B5" /><path transform="translate(695,1759)" d="m0 0 3 1-7 4-21 7-4-1 3-2 11-3 6-2 7-3z" fill="#F8D0CF" /><path transform="translate(611,1364)" d="m0 0h1v16l-1 9-1 1-1 9h-1v-13l2-11z" fill="#F8C8C7" /><path transform="translate(1142,630)" d="m0 0 5 1 8 4-1 4-8 7-5 4 2-4 8-8 1-3-7-2z" fill="#F29090" /><path transform="translate(580,1780)" d="m0 0 4 2 7 10 4 6-1 2-4-5-7-8-3-4z" fill="#FAE3E2" /><path transform="translate(635,933)" d="m0 0h1l-1 19-1 1-1 11h-1v-18z" fill="#F8C7C6" /><path transform="translate(971,323)" d="m0 0h11l-2 2-18 2h-6l2-2 11-1z" fill="#F7ADAD" /><path transform="translate(800,2015)" d="m0 0 4 3 16 1v2h-17l-3-2z" fill="#F9D9D8" /><path transform="translate(1256,1680)" d="m0 0h2l-2 6-8 17h-1l1-7z" fill="#F7B1B1" /><path transform="translate(498,178)" d="m0 0 9 6 6 6-1 2-13-10z" fill="#F8D5D3" /><path transform="translate(1115 2e3)" d="m0 0 5 5 4 7-1 4h-7l1-2h4l-3-7-3-5z" fill="#F9DBD9" /><path transform="translate(1235,1724)" d="m0 0 1 3-12 23-1-3 9-19z" fill="#F7B0B0" /><path transform="translate(963,83)" d="m0 0h2l1 4v17l-2-2z" fill="#F7BDBD" /><path transform="translate(1101,1990)" d="m0 0 5 2 9 11-1 2-5-6-4-2v-2l-3-1z" fill="#F9CCCC" /><path transform="translate(1356,868)" d="m0 0h1v16l-3 3h-2l1-8z" fill="#F8D7D5" /><path transform="translate(1227,590)" d="m0 0 3 1-8 9-5 7-1-4z" fill="#F39191" /><path transform="translate(570,164)" d="m0 0 9 2 13 3v1l-13-1-8-2z" fill="#FAE3E2" /><path transform="translate(1266,1657)" d="m0 0h2l-3 9-5 12h-1v-6l5-10z" fill="#F7B3B3" /><path transform="translate(1371,681)" d="m0 0h2l1 18-3-1z" fill="#F7B7B7" /><path transform="translate(627,1529)" d="m0 0h1l2 6h3l-2 7h-3l-1-2z" fill="#F7A4A5" /><path transform="translate(1318,1421)" d="m0 0h1v15l-2 14h-1v-15z" fill="#F7AFAF" /><path transform="translate(1171,647)" d="m0 0 8 6 1 3h2v2l4 2 3 3-4-1-12-11z" fill="#F08585" /><path transform="translate(1179,633)" d="m0 0 4 1-10 4-8 2v-4l12-2z" fill="#F39191" /><path transform="translate(890,1958)" d="m0 0 2 1-6 9-5 8-1-3 7-11z" fill="#F7B3B3" /><path transform="translate(1376,1122)" d="m0 0 1 4-5 19h-1v-7z" fill="#F7B2B2" /><path transform="translate(972,152)" d="m0 0h1l1 13 3 3-1 7-2-1-2-8z" fill="#F7BEBD" /><path transform="translate(959,59)" d="m0 0 2 2 2 11 1 6h-2l-2-4z" fill="#F7B4B4" /><path transform="translate(710,1745)" d="m0 0h2v7l-10 7-4-1 9-5 3-2z" fill="#F8C5C5" /><path transform="translate(578,1772)" d="m0 0h10l6 2v1h-16z" fill="#FDFDFD" /><path transform="translate(621,182)" d="m0 0 9 2 9 4-4 1-7-3-7-2z" fill="#F9D3D2" /><path transform="translate(489,163)" d="m0 0 2 1v7l2 3-5-2-2-6z" fill="#F7A4A5" /><path transform="translate(1163,1858)" d="m0 0h2l-2 5-6 11-1-4z" fill="#F7B7B6" /><path transform="translate(645,1507)" d="m0 0h2v5l-4 4-3 6-1-3z" fill="#F8D5D3" /><path transform="translate(952,8)" d="m0 0 5 2 8 6 2 3-5-1-5-5z" fill="#F8CECC" /><path transform="translate(623,1825)" d="m0 0 4 1 1 2 9 5v2l-5-2-6-4z" fill="#F7BDBC" /><path transform="translate(1191,677)" d="m0 0h10v1l-16 2-1 2h-2l1-4z" fill="#F7A4A5" /><path transform="translate(1150,465)" d="m0 0h2l-2 5-3 9-2 1 2-10z" fill="#E73F3F" /><path transform="translate(491,159)" d="m0 0 4 1-10 7-1-2 4-5z" fill="#F9DFDD" /><path transform="translate(898,2020)" d="m0 0 4 1-3 3h-6l-3-3z" fill="#FDFDFD" /><path transform="translate(659,1635)" d="m0 0 1 3-3 6-4 1-1-1v-7h1v5h3l2-5z" fill="#F9DBDA" /><path transform="translate(1231,557)" d="m0 0 4 2 2 4v9h-1l-2-11h-2z" fill="#E74141" /><path transform="translate(955,41)" d="m0 0h2l1 7v8l-2-2z" fill="#F7B9B9" /><path transform="translate(662,1771)" d="m0 0 4 1-11 3h-6l4-3z" fill="#F8D6D5" /><path transform="translate(656,847)" d="m0 0h2l1 5h2v8h-2l-2-8z" fill="#F7BEBE" /><path transform="translate(799,306)" d="m0 0 4 2 7 9-1 2-10-11z" fill="#F8D6D5" /><path transform="translate(941,1877)" d="m0 0 10 2 1 2-13-1z" fill="#FADEDD" /></svg>