<svg version="1.1" viewBox="0 0 1600 1600" width="50" height="50" xmlns="http://www.w3.org/2000/svg"><path transform="translate(1024,113)" d="m0 0 2 1 2 3 7 6h3v2l4-2h4l6 2 2-1v8h4l1-2 5 1h7l5 2 3 1-1 4 4 3v-2l6 1 2 3h4v4l1 4 10 2 4 2 7 2v1l-8 1v2l10 3 17 3-5 6 13 3 7 2-1 4 1 3h6l2 1v2l6-1v3l-5 2 4 1v2l7 2 6 1-1 3-3 1 7 3 11 2 1 4v4l9 2 1 3 4-1 3 3-5 2 6 5 5 1 3 1v8l7 1 5 1 1 4-4-1v4h5l3 3h3v2h3l3 9 2 1v-5h2l2 9 5 2 6 3h4v2l-2 1 2 4 6 4 4 8 6 5 5 10 4 2 4 7 6 4 5 5v-2h2l1 7 5 5 1-2 4 1v6l4 3h5l4 2-2 5-3-1v2l4 1 5 2 6 1-1 3-3 3 14 2v7l1 1 10 2v3 4l9 3v2h3v2h-2l3 5 6 2 2 6 2 3 5 2 6 10 4 3v2l3-1 4 16 2 5h4l4 9 3 13 4 1 3-1 1 5 14 5v3l8 1 1 2-1 5 1 1 14 2 5 2-2 5 10 3 7 3-4 4 4 3 11 5 21 5 11 2 3 3-1 5 11 3 2 5v2h5l1 1-2 28-2 3-4 1-2 4-2 10-6 2-1 1-1 10-2 2-6 1-2 10-8 2-1 3h-2l-2 5-1 1h-5l-2 10-1 1-8 1-1 2-1 7h-18l-20-4-2 21v64l-2 21-4 1 2 12v15l-2 32-2 20-3 10-3 18-3 12-3 9-3 7-2-1-1-12-2 18-3 8h-2l1 7-1 6 3 1-2 4h-2l-1 2-1-1-3 19-4 12-5 6-2-1-1 9-3 10h-2l-1 3-4-1 1 3-4 10 1 6h-3l1 4-5 1-1 15-1 6-4 1-1-2v-5l-1 8-3 3h-3v2l3 1v5h-2l-3-5-1 4v18h-2l1 7h-2l1 7 1 2h-7v2l3-1 7 4 3 3-1 4 4 1 6 3 3 3-2 3 8 3 2 2 3 1-2 3h3v2l6 1 3 4v2l6-1 4 3 11 3 6 3v3h-3v2l9 2 8 3 6 1-1 3-2 1v2l7 2v3l5-2 1 5 9 1h8l5-1 3 1 14-9 3-4 1-5 22-3-2-4 2-1 10-1h38l5 1 1 4-1 2h8l1 4v36l-2 7-3 1-5-3-2 12-4 6-1 9-1 2-10 3-2 7-5 2-9 1 3 4v2l-14 7 3 2-7 3-6 1h-24l-49-3-16-3v-1h9l-17-2-16-1-1-1v-8h-18l-10-2-8-4 2-1v-2l-26-5-9-3-23-6-8-3v-4l-6-1h-15l-5 1-1 7-8 3-2 3h-3l1 5-3 1-2 3-2 10-5 1-5 4-4-3v3l-12-1-3-7v-4h-2v2h-2v-2l-3-1-1-3-5-4v-2l-4-2-5-5-1-3-9-7-4-2-5-7-7-3-3-5-5-3h-7l-3 4-6 2-9 4-5 1 3 2v6l-1 3 2 7-1 4-3-6-1-7h-2l1 6h-2l3 8 5 2 5 12 4 6 5 15 3 1v3l3 1 2 4 3 2v3l2 1-1 3 1 2 8 2 2 3 1 5 5 2 3 1-2 6 6 2 3 4v6l6 2 5 5 3-2 2 7 2 1 3 6 1-1v-2h2l3 7 3 4 3 1 3 6 6 2 3 8 10 3 4-1h3l9 1-3-5 4-2h8v-9l11-2 14-3h24l11 1 6 8 2 5 7 1v32l-3 8h-4l-6 16-2 5-1-4-7 16-5 5-11 12-8 7-5 4-4 4-9 2h-52l-6-2-1-3 3-1-21-6-5-3-1-3-17-6-2-4-10-3-11-5-11-7-5-3v-2l-7-2-2-2-6-2-1-3-4-2-13-7-1-4-7-2-8-4-1-3-12-7-14-8-4-2-1-6-10-1-6-4v-4l-6-2-18-11-10-7-12-8-7-7-6-4v-2l-4-1-12-6v-3l-12-6-5-4v-2l-21-15v-2l-3-1v-2l-5-2-14-7-7-4-32-4-39-7-84-10-31-4-35-4-10-2-6-8 1 4-4-2-3-5-2-10-3-3-12-5-21-6-20-11-9-4-10-4-12-9-7-5-4-5-15-10-4-4-5-2-13-5-6-3-4-4-1-8-1-6-2-6-16-10-6-3-3-3v-4l-5-2-5-3v-2h-2l1-4v-4l6-2 1-3h2l-2-4v-7l-9-6-16-15-4-4-2-4-4-1-17-1-41-1-75-1v2h2v3l-5 3-3 5-2 8v14l1 2 5 2 7 20 6 3 1 15v14l-2 5-5-1-2 7-3 2h-3v7l-4 1h-40l-3-3v-6l-10-2-3-3v-7l-8-1-3-25-2-12-1-41 1-2-32 2-36 6-20 3h-6l-2 4-27 7h-2l-1 6 3 1-4 1-2 5-8 4-1 1-1 13v41l3 34v13l-3 28-2 5-3 2-3 7-3 2-7 1-1 9h-13l-19-2-1-1v-8l-6 1-3-3-2-5v5l-4-4-2-9-3-39-1-24v-26l1-21 1-6h4l3-7 2-9 5-1 5-3 1-8 1-4 7 1 4-10h1l1 6h1l3-9h2v-4l5 2 5-16h2v4h2l3-10 6-9 5-5 4-14 2-1 1 2 3 1 2-20 1-2h7l1-7v-18l1-10 3-4 1 7 4-10 2-9 1-26 2-1 2 1v-2l3 1 3-8 1-9h4 3l3-17h2l3 6 2-6v-12l4-11 2-8 5 1 2-1v-3l2-4 3-5 1-9 2-3v6h2l4-16 2-1 1 3 4-9 1-4h2v-3h2l5-8h2l3-9h2v2l2-1 5-14 2-1 2 3 6-11 5-5 5-10 5-1 3-9 2-2 5-2 10-11 8-7 2-3h2l2-5 7-6 5-7 5-3 3-5 8-6 10-6 5-5 4-2 5-5 6-1 2-4 4-3h2l1-5 2 1 1-9-6-3-3-5-4-13-1 5-2-1-2-10v-67l1-9 2-1 1 7 2-3 3-14 4-6 3-6 2 3 5-10 1-1h5l4 8 1 3 1-6h2l3 11 3 22 1 2h3l5 21 4 9 3-2 4 5-1 4h2l6 6 6 14 7 5v2l3 1h-2v3l5 2 12 7 18 4 16 4 13 5 21 6 24 7 6 3 8 6 7 1v2l6 2 1 4 7 1 5 2-2 2 8 4 6 2 4 4 3 2 2 4 16 3 6 2 3 5 10 4v5h5l11 6 6 1 1 2 3-1 2 1v2l-3 1 6 4 9 3 1 4 26 1 48 1h19l34-1 12-1 3-1 19-1v-1l-20 1v-2l28-3 15-1 5-1 19-2 4-2v-2l-6-2 4-2 2 1 1-2h3l2-5 7-11 3-11 5-6 5-14 1-9 5-5 5-13 6-10 4-9 1-2 5 1 2-1v-9l2-3h5l2-3-1-5 3-1 2-5 4-6 1-5h2v2l4-4 1-7 2-2 5-2 4-4 4-6 6-4h3l3-10 3-7v-10l-1-7-7-10-4-4-2-6-5-2-5-4-1-6-3-1-3-2-6-5 1-4h-2l-1-4h-2v-2l-4-4-1-7-4 1-4-4-1-13-1-3-3 3-3-4-5-17-1-2-3 2-5-9-2-8h-5l-3-5-2-7h-2l-6-12-2-8-2-1-4-10-5-18 1 9-4-5-4-13v-32l2-4 3-1v2l17 1 20 3 14 1v1h-25l-2 1v2l10 2 10 1 29 1-1 2-28 2-4 1 40 4 21 4v1l-11 1h-37l37 1 22 4-2 4 1 4 12 4v4l-2 1 9 3 9 2 1 2-4 2 19 5v4l2 4 3 3 9 4 1 7 5 2h3v4l4 3 7 1v4l-1 3h2l1 4 6-2 1 3v3l4 2 4 1-2 6h2l1 2 9 2 2 7-1 3 4 2h15l3-3v-6l2-1h16v-4l3 1 2-7 10-2v-9l-2-1-1-2-3-4-1-4-2 1h-3l-5-7v-4h-3l-6-10-4-4v-4l-5-1-4-6-3-8-1 2-3-1-3-4-2-9-4-3-4-1-2-3-2-11-3-3-4 2-2-3-1-12h-2l-4-1-2-5-3-12-3 2-3-5-3-9v-6l-5-1-4-9-2-4-1 2-4-2-3-8-1-20-2-1-2-2v3l-4 1-1-3v-32l2-3zm14 62m-95 88-1 2h9v-1zm-3 1m14 1m-70 28 1 3zm189 49m-685 163 1 2zm1 2 1 2zm1099 3m-136 536v2h2l1 2v-3zm1 4m0 3v2l3-1zm-2 3m171 54m56 4m-441 46m3 1m-1 1m-2 3m422 12v3l3 1-2-4zm-314 24 2 2v-2zm276 11m-540 43m1 1m228 19v2h2v-2z" fill="#FDC07C" /><path transform="translate(355,434)" d="m0 0h5l4 8 1 3 1-6h2l3 11 3 22 1 2h3l5 21 4 9 3-2 4 5-1 4h2l6 6 6 14 7 5v2l3 1h-2v3l5 2 12 7 18 4 16 4 13 5 21 6 24 7 6 3 8 6 7 1v2l6 2 1 4 7 1 5 2-2 2 8 4 6 2 4 4 3 2 2 4 16 3 6 2 3 5 10 4v5h5l11 6 6 1 1 2 3-1 2 1v2l-3 1 6 4 9 3 1 4 26 1 48 1h19l34-1 12-1 3-1h19v2l-4 2-2 4 1 4 1 3 3 3v4l3 1v2h2v3h2l4 8 1-2 5 8 5 7 3 5 3 6 8 14 1 7v3h2l5 18 4 8 5 16 1 6 2 3 1 7 3 7 3 8 3 9 2 9 1 13 2 8 3 15 2 20v61l-2 49-3 14-4 14-3 8-4 17-7 12-3 3-3 6-4 5-16 14-22 12-10 1-27 3h-26l-24-1-18-5-20-9-12-5-10-4-10-6-10-7-21-10-11-9v-2l-4-1v-2l-4-1-5-4-4-2v-2l-5-2-9-7-15-10-8-7-8-6-5-5v-2l-4-2-6-5-10-6-6-7-5-11-2-7-4-2-6-7v-2h-2l-8-16-6-9-3-5-2-6-1-14v-10l4-13 2-21-1-6-4 2-10 7-6 3-6 7h-2l-2 4-15 9-7 6-8 7-4 5h-2v2l-17 8-11 9-16 7-23 8-10 5-11 6-17 5-28 4-32 3-21 3-3 2v-2h-16l-1-1h-12l-9-3-7-4-1-3-2-1v2l-7-1-11-2-3-3-8-6v-2l-5-1-5-5-12-3-8-6 1-2 2 1v2l3-1-3-2v-2h-2l-6-10-3-9h-3l-2 12-3 3v-18l1-10 3-4 1 7 4-10 2-9 1-26 2-1 2 1v-2l3 1 3-8 1-9h4 3l3-17h2l3 6 2-6v-12l4-11 2-8 5 1 2-1v-3l2-4 3-5 1-9 2-3v6h2l4-16 2-1 1 3 4-9 1-4h2v-3h2l5-8h2l3-9h2v2l2-1 5-14 2-1 2 3 6-11 5-5 5-10 5-1 3-9 2-2 5-2 10-11 8-7 2-3h2l2-5 7-6 5-7 5-3 3-5 8-6 10-6 5-5 4-2 5-5 6-1 2-4 4-3h2l1-5 2 1 1-9-6-3-3-5-4-13-1 5-2-1-2-10v-67l1-9 2-1 1 7 2-3 3-14 4-6 3-6 2 3 5-10zm33 71 1 2zm1 2 1 2z" fill="#FDC07B" /><path transform="translate(1279,525)" d="m0 0 5 1 7 7v2l6 1 5-2 7-1 3 3 1 4 11 3 7 1 6 2 12 2 5 2 19 3 19 1 5 1 8-2v2h2l5 19 2 6h2l2 7h2l4 7 4 5 5 6v2h2l6 8 14 14 6 4 5 3 4 1h7l8-3 2-1-1 7h-18l-20-4-2 21v64l-2 21-4 1 2 12v15l-2 32-2 20-3 10-3 18-3 12-3 9-3 7-2-1-1-12-2 18-3 8h-2l1 7-1 6 3 1-2 4h-2l-1 2-1-1-3 19-4 12-5 6-2-1-1 9-3 10h-2l-1 3-4-1 1 3-4 10 1 6h-3l1 4-5 1-1 15-1 6-4 1-1-2v-5l-1 8-3 3h-3v2l3 1v5h-2l-3-5-1 4v18h-2l1 7h-2l1 7 1 2h-7v2l3-1 7 4 3 3-1 4 4 1 6 3 3 3-2 3 8 3 2 2 3 1-2 3h3v2l6 1 3 4v2l6-1 4 3 11 3 6 3v3h-3v2l9 2 8 3 6 1-1 3-2 1v2l7 2v3l5-2 1 5 9 1h8l5-1 3 1 14-9 3-4 1-5 22-3-2-4 2-1 10-1h38l5 1 1 4-1 2h8l1 4v36l-2 7-3 1-5-3-2 12-4 6-1 9-1 2-10 3-2 7-5 2-9 1 3 4v2l-14 7 3 2-7 3-6 1h-24l-49-3-16-3v-1h9l-17-2-16-1-1-1v-8h-18l-10-2-8-4 2-1v-2l-26-5-9-3-23-6-8-3v-4l-6-1h-15l-5 1-1 7-8 3-2 3h-3l1 5-3 1-2 3-2 10-5 1-5 4-4-3v3l-12-1-2-3 1-4 6 2 4-2 2-5 8-5-1-5-6-3v-2l-5-2-10-13-11-15-4-6-5-4-5-7-3-5-6-8-4-4-6-8-5-5-4-5-7-11-4-10-5-10-4-14-2-2-3-7-3-3-4-11-12-24-2-7-3-5-1-4-3-3v-3h-2l-2-4-2-16-3-5-1-6h-3l-2-4-8-6-3-19-4-14-2-2-2-13-3-6-1-11 2-11 1-16-2-9-1-10-1-4v-21l16-54 7-11 5-10 3-1 2-4 6-10 7-8 2-3h2l2-5 7-8 5-6 8-7 6-5 5-5 15-10 8-7 5-5 8-16 4-14 5-12 12-25 4-11 4-6 6-11h2l2-5 3-5 12-7 4-1v-2l8-3h9zm73 521v2h2l1 2v-3zm1 4m0 3v2l3-1zm-2 3m171 54m56 4m-19 63v3l3 1-2-4zm-314 24 2 2v-2z" fill="#FEE7C6" /><path transform="translate(872,648)" d="m0 0 7 1 1 3-2 3h-2v2l-5 5-5 9v23l3 17 3 10 3 5 1 6v9h2l7 17 6 12 6 16 4 6 4 2v2l5 1 5 7v2l3-1 3 4v6l5 1 4 10h2l4 5 5 13 4 5v3h2l3 8 4 5 3 10 3 5 10 18 8 8 5 9 2 1v2l4 2 8 9 1 7 3 1 2 5 8 7 4 4 6 10 8 8 5 3 5 8 8 16 5 13v2l5 2 2 5 6 3v2l12 6v2l4 2 7 6 5 7 4 3v2h2l2 6h2l4 10 6 11 7 7 7 6 1 4h2l6 8 7 10 5 3 5 5v2l4 2v2l5 1v-2h-2l-6-8-5-3-3-9-2-8-7-5-4-6-2-4 1-2 7 6 7 2 2 5 3 4v2h2l1-2h3l-1 8 7 13 4 4 3 1 1 2v7l-10 9-8 6-5 4-9 3-3 3-1 9 1 5h-2l-1 4h-2l-1 3-5-2-6-1-6-2-4-5 3-1-14-4-10-4-17-9-12-5-4-3-15-5-25-2-22-1-23 4-5 3h-3l-1 3-2 1-1 3-1 11-1 4-2 2-1 7 4 2 13 15v2h2l1 2 5 3v2l5 2 10 13 5 7 10 7v2l6 2 5 6 8 6 10 8v2l4 2 10 9 9 6 18 13 15 10 17 10 14 8 16 8 21 11 25 15 23 12 18 8 10 5 9 3 5 3 10 1 14 1 10 7v2l3-1v2l5 1v2h2l-1 6-5 3-5 5-9 3-13 1-2 1v-2h-3l-1 2h-11l-12-5-13-2-12-4-3-5-17-6-2-4-10-3-11-5-11-7-5-3v-2l-7-2-2-2-6-2-1-3-4-2-13-7-1-4-7-2-8-4-1-3-12-7-14-8-4-2-1-6-10-1-6-4v-4l-6-2-18-11-10-7-12-8-7-7-6-4v-2l-4-1-12-6v-3l-12-6-5-4v-2l-21-15v-2l-3-1v-2l-5-2-14-7-7-4-32-4-39-7-84-10-31-4-35-4-10-2-6-8 1 4-4-2-3-5-2-10-3-3-12-5-21-6-20-11-9-4-10-4-12-9-7-5-4-5-15-10-4-4-5-2-13-5-6-3-4-4-1-8-1-6-2-6-16-10-6-3-3-3v-4l-5-2-5-3v-2h-2l1-4v-4l6-2 1-3h2l-2-4v-7l-9-6-16-15-4-4-2-4-4-1-17-1-41-1-75-1v2h2v3l-5 3-3 5-2 8v14l1 2 5 2 7 20 6 3 1 15v14l-2 5-5-1-2 7-3 2h-3v7l-4 1h-40l-3-3v-6l-10-2-3-3v-7l-8-1-3-25-2-12-1-41 1-2-32 2-36 6-20 3h-6l-2 4-27 7h-2l-1 6 3 1-4 1-2 5-8 4-1 1-1 13v41l3 34v13l-3 28-2 5-3 2-3 7-3 2-7 1-1 9h-13l-19-2-1-1v-8l-6 1-3-3-2-5v5l-4-4-2-9-3-39-1-24v-26l1-21 1-6h4l3-7 2-9 5-1 5-3 1-8 1-4 7 1 4-10h1l1 6h1l3-9h2v-4l5 2 5-16h2v4h2l3-10 6-9 5-5 4-14 2-1 1 2 3 1 2-20 1-2h7l4-14 2-8h3l8 16 1 3h2l4 5h-4v-2l-2 1 8 5 11 3 7 6 3 1v2l4 2 7 5v2h8l10 3v-2l3 1v3l5 2 10 3 1 1h12l1 1h14l3 2 2-2 21-3 32-3 12-2 16-2 17-5 11-6 5-3 17-6 15-6 12-5 13-10 13-6h2v-2l5-5 5-4 5-5 8-7 12-6 7-8h2l2-4 6-2 1-2 9-6 4-2 2 7-2 21-4 13v17l1 9 4 8 4 5 9 17 1 4h2l6 8 5 5 7 16 5 6 10 6 10 8v2l4 2 5 5 11 9 10 7 13 9v2l5 2 3 3 7 4 5 3v2l4 1v2l4 2 9 7 21 10 9 7 14 7 16 6 12 6 12 5 15 4 33 1h17l29-3 10-2 22-12 8-8 6-5 5-7 3-5 5-8 3-5 4-17 6-18 3-11 1-7 2-50v-64l-3-21-3-16-1-2-2-19-4-10-1-5-3-8-2-6-2-7-2-6-4-14-4-10-3-9-2-5v-5h-2l-1-7-5-11-2-2-3-5-2-5-5-8-6-7-1-4h-3l-2-4v-3h-2v-3h-2l-3-3-1-6-3-1-2-4 1-5 4-4h2v-2h2v-2l28-4z" fill="#FAA967" /><path transform="translate(1170,1135)" d="m0 0 3 1 3 5 3 7 7 8-4 1-9-9-2-1h-7l-3 4-6 2-9 4-5 1 3 2v6l-1 3 2 7-1 4-3-6-1-7h-2l1 6h-2l3 8 5 2 5 12 4 6 5 15 3 1v3l3 1 2 4 3 2v3l2 1-1 3 1 2 8 2 2 3 1 5 5 2 3 1-2 6 6 2 3 4v6l6 2 5 5 3-2 2 7 2 1 3 6 1-1v-2h2l3 7 3 4 3 1 3 6 6 2 3 8 10 3 4-1h3l9 1-3-5 4-2h8v-9l11-2 14-3h24l11 1 6 8 2 5 7 1v32l-3 8h-4l-6 16-2 5-1-4-7 16-5 5-11 12-8 7-5 4-4 4-9 2h-52l-6-2-1-3 3-1-4-2 7 1 10 4h11l4-1h4l13-1 8-4h2l2-4 2-2h3l1-6h-2v-2l-8-2v-2l-6-2-4-4-14-1h-6l-8-3-3-1v-2l-9-2-38-18-18-10-22-13-30-16-12-6-17-10-16-10-16-12-13-9-11-9-5-4-5-5-11-9-7-6v-2l-6-2v-2l-4-2-7-5-6-8-8-11-5-3-2-3-4-2v-2h-2l-9-11-6-7-2-1v-8l3-5 1-11 2-4 3-3 7-3 6-2 19-3 38 2 11 2 12 4 6 4 18 8 15 8 9 3 5 1 5 2-3 2 3 2v2l6 1 9 2 2 1 1-2h2l1-4h2l-2-5 1-9 5-5 9-3 10-8zm-33 25m3 1m-1 1m-2 3m73 110v2h2v-2z" fill="#FDC17C" /><path transform="translate(1344,1059)" d="m0 0 5 1 8 4 6 5 10 5 3 3-2 3 8 3 2 2 3 1-2 3h3v2l6 1 3 4v2l6-1 4 3 11 3 6 3v3h-3v2l9 2 8 3 6 1-1 3-2 1v2l7 2v3l5-2 1 5 9 1h8l5-1 3 1 14-9 3-4 1-5 22-3-2-4 2-1 10-1h38l5 1 1 4-1 2h8l1 4v36l-2 7-3 1-5-3-2 12-4 6-1 9-1 2-10 3-2 7-5 2-9 1 3 4v2l-14 7 3 2-7 3-6 1h-24l-49-3-16-3v-1h9l-17-2-16-1-1-1v-8h-18l-10-2-8-4 2-1v-2l-26-5-9-3-23-6-8-3v-6h-5l-6-2v-2h-5v-2l-4-1-1-5 4-8 11-15 10-16 7-8 6-11 9-14 7-13 8-10zm178 51m56 4m-19 63v3l3 1-2-4z" fill="#FDC07B" /><path transform="translate(871,223)" d="m0 0 1 2 17 1 20 3 14 1v1h-25l-2 1v2l10 2 10 1 29 1-1 2-28 2-4 1 40 4 21 4v1l-11 1h-37l4 4 14 10 4 2v2l4 2 6 4v2l5 2 5 4 13 9 18 14 15 13 14 12 17 16 37 37-2 4-19 14-14 10-13 9-12 8-10 7h-2l-1 3-6 5-8 1-6-3-1-4h-2l-7-8-4-6-10-14v-2h-2l-2-5-4-4-7-10-2-1v-3h-2l-7-11-4-5-6-10-6-8-4-7-3-5-5-9v-2l-2-1v-2l-3-3-2-4-3-3-5-8-3-1-5-11-2-7-5-13-5-14v-3h-2l-4-13-1-7v-15z" fill="#E26252" /><path transform="translate(1253,555)" d="m0 0 4 1 4 12v4h2l3 9 8 11 5 5 10 4 8 5v2l11 3 12 2 20 6 23 6 16 3 10 4-1 8-3 17-2 14v38l4 22 3 8 2 7 4 7 5 14v8l-2 5-5 5h-7l-7-3-13-4-8-6-13-10-3-3v-2h-2l-5-7-4-3-6 2-6 5-17 8-5 1h-11v-2l-6-1-7-4v-2l-7-1-7-3-8-8v-2l-3-1-3-6-1-10v-12l5-8 6-8 8-9h2l1-3h2v-2l10-8h2l2-4 8-7 6-7 2-4-1-7-2-6v-4h-2l-3-8-3-2-3-5-16-11v-2l-4-2-6-7v-2h-2v-3h-2l-5-13-1-8 1-10z" fill="#643B2D" /><path transform="translate(1023,131)" d="m0 0 5 3 5 5 5 3 18 1 3 2h8l8 4v2h4v2h3l10 10 10 7 4 6 7 5 5 3 5 6 8 4 2 2 2 5 3 5 4 1 2 4 11 10 9 7 10 9 9 7 3 3 1 6 4 2 3 5 5 6 10 8 5 6 1 5 5 8 1 1 1 11-4 5-4 3-8 2-9 3-12 6-12 5-16 5-4 1-2-1-1 4-2-5-2-1v-3l-4 1-1-3-3-4-1-4-2 1h-3l-5-7v-4h-3l-6-10-4-4v-4l-5-1-4-6-3-8-1 2-3-1-3-4-2-9-4-3-4-1-2-3-2-11-3-3-4 2-2-3-1-12h-2l-4-1-2-5-3-12-3 2-3-5-3-9v-6l-5-1-4-9-2-4-1 2-4-2-3-8-1-20-2-1-4-4-2-5z" fill="#FAA968" /><path transform="translate(1484,516)" d="m0 0h17l16 2 9 3 3 2v2l11 3 2 5v2h5l1 1-2 28-2 3-4 1-2 4-2 10-6 2-1 1-1 10-2 2-6 1-2 10-8 2-1 3h-2l-2 5-1 1h-5l-2 10-1 1-8 1-5 5-6 2h-7l-5-2-10-6-18-18-2-5h-2l-2-5-3-1-1-4-3-1-3-6-1-3h-2l-2-7h-2l-4-9-4-16 1-10 4-7 8-7 12-6 13-4 23-4z" fill="#3E1E19" /><path transform="translate(1337,1067)" d="m0 0 8 1v3 2h2v2l5 2 7 5 1 5h7l3 2v2l6 2 2 5-5 5-1-3-4-1-7-1v2l3 3 2 7-2 11 1 3-1 2h-2l3 10 3 3 4 7 5 6 6 4 5 5 3 6 8 6 3 3v-6l7 3 25 10v3l-5-1 2 4 17 2 22 5 13 2 17 1h7l15-5 3 1-1 3h-2l-1 2-15 4-13 2h-16l-10-1-11-1-20-4-5-2h-13l-8 1-15-2-14-3-9-3-35-7-11-4-23-6-1-5v-2h-5l-6-2v-2h-5v-2l-4-1-1-5 4-8 11-15 10-16 7-8 6-11 9-14 7-13z" fill="#FAA967" /><path transform="translate(1308,619)" d="m0 0 10 3 2 4h2l7 9 5 9 4 7v2h2l5 12 1 13 1 18-3 12-2 1-1 7-4 6-2 11v16l-5-2-7 4-3 3-17 8-5 1h-11v-2l-6-1-7-4v-2l-7-1-7-3-8-8v-2l-3-1-3-6-1-10v-12l5-8 6-8 8-9h2l1-3h2v-2l10-8h2l2-4 8-7 6-7 2-4-1-7-2-6v-4h-2l-3-8-3-2 1-2 5 5 8 13 3 5 4 2 5 1 1 5 5 1v2h2l-3-6v-5l-2-1-4-7-3-10z" fill="#FA6962" /><path transform="translate(1270,519)" d="m0 0 16 1 5 5 3 4v5l3-1 5-6h8l8 6 1 2 8 3 13 2 15 4 12 1 9 2h22l8-2v10h-3l-7 1-16-2h-7l-19-3-5-2-17-3-1-1-11-2-7-3-2-6-10 1-4 2-4-1-3-3v-2l-5-2-2-3-5 1-2 2h-9l-8 2v2l-9 5-5 3h-2l-2 5-3 5h-2l-2 6-4 6-5 9-4 11-10 21-6 15-4 13-7 14-3 3h-2l-2 4-9 8-12 7-3 3h-2l-2 4-6 5h-2l-2 4-6 5-7 9-4 6-4 4-8 10-7 11-3 3-8 14-4 8-9 30-6 21v24l1 1 2 13 1 9-1 13-2 12 1 10 3 6 2 13 3 5 4 16 2 14 8 6 1 4h3l4 9 2 7 1 11 1 4h2l1 5 3 1 3 7 6 15 6 11 4 10 4 9 4 5 2 5 3 7 3 10 7 15 5 10 7 9 1 3 4 2 9 11 5 6 4 5 5 10 4 2 5 6 9 13 12 16 5 3v2l4 1 4 3-1 5-8 5-2 5-5 2-7-3v-4h-2v2h-2v-2l-3-1-1-3-5-4v-2l-4-2-5-5-1-3-6-5 4-3h1v-5l-2-2v-3h-3l-7-10-3-8v-5h-2l-1-4-4-6-2-5-2-2-2-7-2-3-3-11-4-8-5-5-6-9-1-5v-6l-6-2-2-5h-5l-2-7-3-5-2-3-2-7-6-7-1-3-3-1-4-9 3-9v-7l-4-7-5-8-3-7-6-8-1-7-3-1-2-3-2-8-1-1v-6h-2l-2-6-1-15v-6l-2-2-1 5-5-4-3-19-2-2-3-9v-32l-1-8v-17l4-20 2-11 5-19 11-28 6-11 8-12 13-18 10-14h2l2-4 8-10 9-9 9-7 4-1v-2l7-4h2v-2l5-3 6-7 5-10 10-24 4-9 12-22 12-20 16-22 11-9 10-8z" fill="#FAD3AB" /><path transform="translate(276,978)" d="m0 0 19 1 10 3 2 1 1 11 2 6 2 9 5 2 7 20 6 3 1 15v14l-2 5-5-1-2 7-3 2h-3v7l-4 1h-40l-3-3v-6l-10-2-3-3v-7l-8-1-3-25-2-12v-38l2-7 8-1z" fill="#FB8E5B" /><path transform="translate(873,227)" d="m0 0 10 2 21 11 18 12 17 12 8 5v2l4 2 6 4v2l5 2 5 4 13 9 18 14 15 13 14 12 17 16 37 37-2 4-19 14-14 10-5 2v-7l2-3-2-1-2-5-2-4h-3v-2h-2l-4-6v-2h-2v-2h-2l-4-5-2-2-4-5-8-8v-2h-3l-3-5-3-1-3-4v-2l-4-2-7-9-6-7v-2h-2v-2h-2v-2h-2l-2-4-6-4v-2l-5-2v-2l-4-2-13-12-2-1v-3h-5l-3-3v-3l-2-1-1 1-3-1-1-4-4 1-4-5v-2l-4-1v-2l-6-1-5-5-2-6h-2l-3-8-6-5-5-3-3-6-6-7v-2h-2z" fill="#D04C3E" /><path transform="translate(1484,516)" d="m0 0h17l16 2 9 3 3 2v2l11 3 2 5v2h5l1 1-2 28-2 3-4-1 4-12h-2v-4h2l-2-3v-3l-2-1v2l-11 2v2l-7 1-2 1h2l1 5 5-2h3l-1 5h-2l-1 4-4 3-7-3v-2l-3-1v-2l-7 1-1 1h-6v6l6-2 2 3 4-2 4 4 1-1h5l-1 2-5 1-1 6-2-2v-2l-4 1-4-2-3 3h-2l-1 5h-4v-5l-3-5-5-4h-10l-6-1-6 1-4-1h-9l-3-3-15-1-13-8v-2l-3 1-1-2h-4l-1 7 4 18v5l-3-4-5-16-1-11 3-8 7-8 12-7 11-4 28-5z" fill="#653B2D" /><path transform="translate(435,966)" d="m0 0 14 1 12 6 6 7 10 8v2h2l2 3v3h2l10 10 3 5 2 4 5 2 3 7v6l-3 4v4l4 1v2h2v2l6 2 14 8 2 4 4 1 6 8 2 4v5h-2v3l3 1v2l9 2 6 3v2h3v2l4 1v2l5 1 5 2 2 5 3 3 1 6 4 1 9 4v2h2l4 4 20 8 2 3 6 3 9 2 20 7 17 2 7 7v5l4 2 5 3 6 4 5 2 12 5 6 2 20 2 5 2v2l30 1h15l10 1 17 1 11 3 4 3h8l1 1 13 2 10 2 18 3 25 1 7 1 16 11 24 18 4 2 5 5 10 9 5 5 1 2-9-3-8-5-2-2v-2l-21-15v-2l-3-1v-2l-5-2-14-7-7-4-32-4-39-7-84-10-31-4-35-4-10-2-6-8 1 4-4-2-3-5-2-10-3-3-12-5-21-6-20-11-9-4-10-4-12-9-7-5-4-5-15-10-4-4-5-2-13-5-6-3-4-4-1-8-1-6-2-6-16-10-6-3-3-3v-4l-5-2-5-3v-2h-2l1-4v-4l6-2 1-3h2l-2-4v-7l-9-6-16-15-4-4-2-4-4-1-17-1-75-2 2-2 50-3z" fill="#F1B680" /><path transform="translate(362,456)" d="m0 0h2l6 15 3 10 5 11 7 16 6 8 5 7 1 6 4 2 10 10 12 11-1 4-4 1v2l-13 2-12 5-12 6-6 4-1-1-13-2-9-11-4-3h-3l1-2-3-4-2-3h-1l-1-11v-5l-4-4-1-5 1-2-3-6v-15l3-12 3-5 3-11 4-8h4l3 18 2 7h2l2-6 1-7 1-10v-10z" fill="#FBA967" /><path transform="translate(925,254)" d="m0 0h37l22 4-2 4 1 4 12 4v4l-2 1 9 3 9 2 1 2-4 2-1 2-4-3h-3l5 5 8 5 4 2v2l5 2 5 4 8 10 1 4 4 2 3 4 2 6 3 5 5 4v2l4 2 5 5 1 3 4 2 7 8 6 5 2 6-2 8 1 6-4-2-42-42-8-7-11-10-11-9-13-11-20-15-8-4-5-5-2-1v-2l-4-2-6-4-1-2-7-4-14-10zm18 9-1 2h9v-1z" fill="#FBD2A9" /><path transform="translate(339,552)" d="m0 0 4 5 2 4 5 4 3 7 1 9h-2l-2 4-8 7-5 5-3 1-2 6-5 5-8 7-13 8-7 7-8 6h-2v2h-2l-1 5-11 9-5 3-5 5-5 3-6 7-5 6-4 8h-2l-2 7-1 8-6 8-4 3h-2l-1 3-7 6-4 6-8 10-6 11-8 16-9 13-2 5-7 7h-2l-2 5-5 11-6 13-3 7-5 10-5 19-6 11-5 4-6 16-2 1 4-17 1-26 2-1 2 1v-2l3 1 3-8 1-9h4 3l3-17h2l3 6 2-6v-12l4-11 2-8 5 1 2-1v-3l2-4 3-5 1-9 2-3v6h2l4-16 2-1 1 3 4-9 1-4h2v-3h2l5-8h2l3-9h2v2l2-1 5-14 2-1 2 3 6-11 5-5 5-10 5-1 3-9 2-2 5-2 10-11 8-7 2-3h2l2-5 7-6 5-7 5-3 3-5 8-6 10-6 5-5 4-2 5-5 6-1 2-4 4-3h2l1-5 2 1 1-9-6-3-3-5z" fill="#F8CB9A" /><path transform="translate(1090,914)" d="m0 0h1l2 10 2 13 4 12 5 3v2h5l2 5 4 20 2 4 8 13 6 12 5 9 3 7 4 4 5 12 4 5 2 5 3 7 3 10 7 15 5 10 7 9 1 3 4 2 9 11 5 6 4 5 5 10 4 2 5 6 9 13 12 16 5 3v2l4 1 4 3-1 5-8 5-2 5-5 2-7-3v-4h-2v2h-2v-2l-3-1-1-3-5-4v-2l-4-2-5-5-1-3-6-5 4-3h1v-5l-2-2v-3h-3l-7-10-3-8v-5h-2l-1-4-4-6-2-5-2-2-2-7-2-3-3-11-4-8-5-5-6-9-1-5v-6l-6-2-2-5h-5l-2-7-3-5-2-3-2-7-6-7-1-3-3-1-4-9 3-9v-7l-4-7-5-8-3-7-6-8-1-7-3-1-2-3-2-8-1-1v-6h-2l-2-6-1-15z" fill="#F8CB9A" /><path transform="translate(1384,1085)" d="m0 0 3 1-2 3h3v2l6 1 3 4v2l6-1 4 3 11 3 6 3v3h-3v2l9 2 8 3 6 1-1 3-2 1v2l7 2v3l5-2 1 5 9 1h8l5-1 3 1 14-9 3-4 1-5 22-3-2-4 2-1 10-1h38l5 1 1 4-1 2h8l1 4v36l-2 7-3 1-5-3-2 12-4 6-1 9-1 2-10 3-2 7-5 2-9 1 3 4v2l-14 7 3 2-7 3-6 1h-24l-49-3-16-3v-1h9l-17-2-16-1-1-1v-7l9 3 13 2 8 2 25 5 33 3 17-1 15-5 5-3 5-5 9-7 4-4 1-3h2l1-3 4-4 3-7 2-5 2-3h2l3-11 2-4h-3l1-6 1-1v-6l-3-3-7-4-3-9-1-9-8-4-9 3-16 3-12 5-5 3-2 4-4 1-1 6-10 9-6 2-9 1-10-4-10-8-9-5-7-5v-2l-12-3-13-7-4-4v-2h-6l-6-4-3-8-3-1v-2l-4-1zm138 25m56 4m-19 63v3l3 1-2-4z" fill="#F8CB9A" /><path transform="translate(384,499)" d="m0 0 2 3 2 2 2-2 4 5-1 4h2l6 6 6 14 7 5v2l3 1h-2v3l5 2 12 7 18 4 16 4 13 5 21 6 24 7 6 3 8 6 7 1v2l6 2 1 4 7 1 5 2-2 2 8 4 6 2 4 4 3 2 2 4 16 3 6 2 3 5 10 4v5h5l11 6 6 1 1 2 3-1 2 1v2l-3 1 6 4 9 3 1 4 26 1 48 1h19l34-1 12-1 9-1-3 2-20 3-33 1-10 2-28-1-13-1h-29l-18-2-9-3-17-9-19-9-5-5-2-4-15-7-7-4-5-4v-2l-9-3-11-5-12-8-10-5-11-4-9-4-11-4-9-3-9-5-16-6-12-3-11-3h-8l-6-2-7-8-10-7-4-5-8-8-4-10-4-5v-2l-5-1-6-10zm4 6 1 2zm1 2 1 2z" fill="#F8CD9E" /><path transform="translate(1253,555)" d="m0 0 4 1 4 12v4h2l3 9 8 11 5 5 10 4 8 5v2l11 3 12 2 20 6 23 6 16 3 10 4-1 4-1-3-31-6-30-8-9-3h-8l9 4 8 7 4 4v2h2l6 7 2 2 6 12 5 13 2 6 1 6 1 4-2 11-2 7-1 7-1 4-1 7-6 5-2 5v8l-1 6 3 10 1 4h-2l-7-10v-14l2-11 5-8v-5l3-1 2-11v-3l-1-23-2-9-3-6v-3h-2l-4-8-5-7-3-6-4-4v-2h-2l-4-4-7-2 3 9 3 10 4 6 2 8 1 3h-2v-2h-5l-2-4 1-2h-6l-5-4-9-16-5-5-8-7-12-8v-2l-4-2-6-7v-2h-2v-3h-2l-5-13-1-8 1-10z" fill="#D04C3E" /><path transform="translate(1303,1293)" d="m0 0h24l11 1 6 8 2 5 7 1v32l-3 8h-4l-6 16-2 5-1-4-7 16-5 5-11 12-8 7-5 4-4 4-9 2h-11v-1l12-3 10-6 5-5 5-4 2-3h2l2-5 6-10 4-8 6-19 2-15 1-1v-11l-11-3-10-3-7-3 2-4 6-3h2l-1-4-9-1-8 1-4 2-12 2-8 2-1 4-8 3h-13l-1-3 6-1h3l9 1-3-5 4-2h8v-9l11-2z" fill="#F8CB9A" /><path transform="translate(491,1037)" d="m0 0h2l4 4 7 4 7 2 6 3v2l6 2 7 5 2 7-2 9 2 5 13 6 7 3 1 3 4 1 4 2 7 1 4 6 3 1 3 8 5 4 5 1 10 7 15 5 7 5 18 7 7 2 6 3 11 2 8 3 6 4v6l2 5 4 2 6 5 20 4 14 2 17 2 7 3 6 1 42 2 12 2 16 2 3 2 12 2 11 1 25 5 22 2h13l11 6 20 13 3 2v2l4 2 13 9 4 5v2l5 1 11 8-2 1-12-6-5-4v-2l-21-15v-2l-3-1v-2l-5-2-14-7-7-4-32-4-39-7-84-10-31-4-35-4-10-2-6-8 1 4-4-2-3-5-2-10-3-3-12-5-21-6-20-11-9-4-10-4-12-9-7-5-4-5-15-10-4-4-5-2-13-5-6-3-4-4-1-8-1-6-2-6-16-10-6-3-3-3z" fill="#FBD6AD" /><path transform="translate(1226,248)" d="m0 0h5l3 3h3v2h3l3 9 2 1v-5h2l2 9 5 2 6 3h4v2l-2 1 2 4 6 4 4 8 6 5 5 10 4 2 4 7 6 4 5 5v-2h2l1 7 5 5 1-2 4 1v6l4 3h5l4 2-2 5-3-1v2l4 1 5 2 6 1-1 3-3 3 14 2-1 7-12-7-3-1v2h-2l6 7 6 4-2 4-7 3-19-2-9-1h-18l-3-2-1-8 2-4 13-4 9-2h7l1-6-3-6-8-7-3-5v-2h-2l-1-5-4-2-5-6-5-5-1-4-3-1-4-6-8-10-3-4v-2h-2l-3-4v-2h-2v-2l-3-1-5-5-9-7v-2l-4-2v-2l-4-2-6-7z" fill="#F8CC9C" /><path transform="translate(1547,1179)" d="m0 0 5 1-1 4-3 3h-2l-1 4-7 7-8 6h-2l-1 3-10 5-10 3-20 1-30-3-25-5-14-3-7-1-9-4-18-1-10-2-8-4 2-1v-2l-2-1 6 1 9 3 19 4 13 1 5-1h13l10 3 13 2 10 2h9l4 1h16l22-4 9-3v-3l-10 3-7 2h-10l-22-2-24-5-17-3-6-2 1-3 6-2 9 4 13 4 12 3 10 2 17 1 14-3 9-4 5-3 6-2 10-3z" fill="#F0B581" /><path transform="translate(1308,619)" d="m0 0 10 3 2 4h2l7 9 5 9 4 7v2h2l5 12 1 13 1 18-3 12-2 1-1 7-4 6-2 11-1 13h-1l-1-17 1-9 1-4 2-1 4-13-1-3-4-2-1-3 1-2h-2l-1 3-2-4-2-1v2l2 1h-2l-2 5-1-4-2-4-2-2-2-5-2-2-2-5 4-1 1-4h-3l-1-7-3-1-2-4-4-3v-3h-2l-1-8 5 2 5 1 1 5 5 1v2h2l-3-6v-5l-2-1-4-7-3-10z" fill="#E26252" /><path transform="translate(1423,638)" d="m0 0h12l8 3 1 4v26l1 8-1 33-4 7-4 1-4-3-3-8-6-10-3-10-2-6-2-14v-11l2-15 2-4z" fill="#FBD4AC" /><path transform="translate(975,262)" d="m0 0 7 3 2 2 11 3v4l-2 1 9 3 9 2 1 2-4 2-1 2-4-3h-3l5 5 8 5 4 2v2l5 2 5 4 8 10 1 4 4 2 3 4 2 6 3 5 5 4v2l4 2 5 5 1 3 4 2 7 8 6 5 2 6-2 8 1 6-4-2-42-42-8-7-11-10-11-9-8-7 4-1 7 5 6 2v2h3l4 7 5 5 1 4h2l4 5 4 2 6 7 2 1v2l4 2 10 11 7 4 1-4-2-5h-2l-2-5-4-4v-2l-4-2-12-12-7-4v-2l-3-1v-2h-3v-2h-2l-1-2h-3v-2h-3v-2h-3l-2-5 1-4-4-2-9-7-3-2v-2l-10-5-1-2-3-1v-2l-6-2v-2l-2-1v-1l-7-2-2-5-4-2-4-5h13z" fill="#F8CB9A" /><path transform="translate(1450,484)" d="m0 0h9l10 3-2 5 10 3 7 3-4 4 4 3 11 5 21 5 11 2 3 3-1 3-7-3-9-2-12-1h-17l-17 1-28 5-13 5h-2l2-6 11-9 3-3h2v-2l4-3h2l1-6 8-4-1-6-1-2-5-2z" fill="#F8CB9B" /><path transform="translate(339,552)" d="m0 0 4 5 2 4 5 4 2 3v12l-15 10-6 5-4 2-4 5-13 10-11 9-10 9-5 5-5 6-5 7-8 7h-2v2l-8 6-5 4-6 9-4 5-7 13h-2l-1 4-2 3h-2l-2 4-6 7-4 7h-2l-2 5-9 11-7 12-6 12-7 12-9 14-6 9-3 12h-1l-1-11 4-11 2-8 5 1 2-1v-3l2-4 3-5 1-9 2-3v6h2l4-16 2-1 1 3 4-9 1-4h2v-3h2l5-8h2l3-9h2v2l2-1 5-14 2-1 2 3 6-11 5-5 5-10 5-1 3-9 2-2 5-2 10-11 8-7 2-3h2l2-5 7-6 5-7 5-3 3-5 8-6 10-6 5-5 4-2 5-5 6-1 2-4 4-3h2l1-5 2 1 1-9-6-3-3-5z" fill="#FBD8B2" /><path transform="translate(1090,914)" d="m0 0h1l2 10 2 13 4 12 5 3v2h5l2 5 4 20 2 4 8 13 6 12 5 9 3 7 4 4 5 12 4 5 2 5 3 7 3 10 7 15 4 8v5l-2-2-3-6-5-5-6-9-1-5v-6l-6-2-2-5h-5l-2-7-3-5-2-3-2-7-6-7-1-3-3-1-4-9 3-9v-7l-4-7-5-8-3-7-6-8-1-7-3-1-2-3-2-8-1-1v-6h-2l-2-6-1-15z" fill="#F8CB9A" /><path transform="translate(1384,1085)" d="m0 0 3 1-2 3h3v2l6 1 3 4v2l6-1 4 3 11 3 6 3v3h-3v2l9 2 8 3 6 1-1 3-2 1v2l7 2v3l5-2 1 5 9 1h8l5-1 3 1 14-9 3-4 1-5 22-3-2-4 2-1 10-1h38l5 1v2l-15-1h-21l-7 3v2l-16 4-11 6-2 4-4 1-1 6-10 9-6 2-9 1-10-4-10-8-9-5-7-5v-2l-12-3-13-7-4-4v-2h-6l-6-4-3-8-3-1v-2l-4-1z" fill="#F8CD9E" /><path transform="translate(1253,555)" d="m0 0 4 1 4 12v4h2l3 9 8 11 6 7 11 7 10 7 3 3 3 9-1 2-4 1v-2h-5l-5-5-12-7-5-2-6-4v-2l-4-2-6-7v-2h-2v-3h-2l-5-13-1-8 1-10z" fill="#714031" /><path transform="translate(650,1147)" d="m0 0 7 1 10 3 3 4 3 7v5h3l1 4 9 2 12 4 16 2 7 1h18l7 3 6 1 42 2 12 2 16 2 3 2 12 2 11 1 25 5 22 2h13l11 6 20 13 3 2v2l4 2 13 9 4 5v2l5 1 11 8-2 1-12-6-5-4v-2l-21-15v-2l-3-1v-2l-5-2-14-7-7-4-32-4-39-7-84-10-31-4-35-4-10-2-6-8 1 4-4-2-3-5-2-10-3-3-12-5z" fill="#FAD3A8" /><path transform="translate(867,228)" d="m0 0h1l2 19 3 8v5h2l6 17 5 13 6 18 4 1 5 8v2l3 1 2 6 3 1 2 5 5 9 3 5 7 11 12 18 7 10v2h2v3l4 2 7 10v2l3 1 1 5h2l8 12 9 12v2l4 2v2h2l1 4 5 1 6 2-3 4-4-1-9-8v-2h-2l-9-13-5-7-2-1-3-5-10-12-8-10-12-18-2-6h-2l-1-3-3 3-3-4-5-17-1-2-3 2-5-9-2-8h-5l-3-5-2-7h-2l-6-12-2-8-2-1-4-10-5-18 1 9-4-5-4-13zm17 65 1 3z" fill="#FB905C" /><path transform="translate(357,439)" d="m0 0 4 2 5 9 7 24 4 11 5 12v2h2l3 7 3 6 5 2 6 9 4 9 6 5 4 6 9 7 1 5-5 5-4 1-3-2h5v-2l4-2-1-4-11-10-10-10-3-2-4-9-7-9-7-14-5-11-8-24-2-2v-4l-3 3v15l-1 4-1 7-3 6h-2l-3-7-2-10v-8h-4l-2 5-8 24-2 7h-1v-7l4-19 7-17h2l2-5 4-7 2-5z" fill="#EFB481" /><path transform="translate(33,1119)" d="m0 0 2 4 3 18 3 7 6 5 3 3v2l6 1 1 2 16-1 18-2 6-3 4-6 3-17h2l-2 19-2 5-3 2-3 7-3 2-7 1-1 9h-13l-19-2-1-1v-8l-6 1-3-3-2-5v5l-4-4-2-9-2-24z" fill="#EFB481" /><path transform="translate(661,1145)" d="m0 0h7l7 1 7 7v5l4 2 5 3 6 4 5 2 12 5 6 2 20 2 5 2v2l30 1h15l10 1 17 1 11 3 4 3h8l1 1 13 2 10 2 18 3 25 1 7 1 16 11 24 18 4 2 5 5 10 9h-3l-7-3-4-5v-2l-5-2-12-9v-2l-4-2-19-12-11-6h-15l-21-2-15-3-9-2-18-2-7-2-1-1-16-2-12-2-42-2-8-2-5-2-25-3-11-2-2-2-14-4v-2l-4-2v-2l-4-2-1-1 1-7-12-6-6-2z" fill="#EFB481" /><path transform="translate(1303,1293)" d="m0 0h24l11 1 6 8 2 5 7 1v32l-3 8h-4l-6 16-2 5-1-4-7 16-5 5-11 12-5 3v-3l9-7 5-10 6-10 2-3 2-6 3-6 2-3h2l2-5 3-6 3-9 1-11-2-5-5-2-2-4-1-8-14-4h-17l-9 3-8 1-11 1-1 2-1-8 11-2z" fill="#FBD4AC" /><path transform="translate(1371,389)" d="m0 0 4 3 5 1 2 6 2 3 5 2 6 10 4 3v2l3-1 4 16 2 5h4l4 9 3 13 4 1 3-1 1 5 14 5v3l8 1 1 2-2 4h-2v-2l-5-2-5-4-8-3-8-4-6-7-6-9-7-6-2-5-8-2-4-5-6-12-2-11-1-11-2-4-4-2z" fill="#F8CD9E" /><path transform="translate(1330,746)" d="m0 0 4 2 5 5 2 4h2l5 6 11 8 8 6-3 1-1 5-9 2-5-1-12-7-1-3-5-2-8-8-7-4-6-1 4-3 8-5 5-4z" fill="#FAD1A8" /><path transform="translate(435,966)" d="m0 0 14 1 12 6 6 7 10 8v2h2l2 3v3h2l10 10 2 9-2 5-7 3-1 6 3 5-5-2-2-1v-2h-2l1-4v-4l6-2 1-3h2l-2-4v-7l-9-6-16-15-4-4-2-4-4-1-17-1-75-2 2-2 50-3z" fill="#F2B680" /><path transform="translate(1436,644)" d="m0 0 4 1v5l1 5 2 23v9l-1 10-4 6-5-2-6-9-1-7-2-5-2-6-1-5 4-14 2-1v-2l7-2 1-4z" fill="#F8CB9A" /><path transform="translate(1299,1380)" d="m0 0h13l1 1v8l-4 8-7 6h-2l-2 4-12 6-9 2h-41l-6-2-1-3 3-1-4-2 7 1 10 4h11l4-1h4l13-1 8-4h2l2-4 2-2h3l1-6h-2v-2l-8-2v-2l-6-2-3-4h13z" fill="#F0B581" /><path transform="translate(960,513)" d="m0 0 2 3-2 4-1 3-2 7-5 8-2 2-2 7-3 1-4 10-6 8-1 2h2l-1 4h-2v2h-2l-1 7-2 2-3 9-3 8-4 10-2 7-10 5-5 1-6 1 2-4 7-5 7-3 6-22 2-9 6-12 8-15 10-11 4-6h2l2-5 7-14z" fill="#FBA967" /><path transform="translate(1171,1092)" d="m0 0 4 4 5 6v2l4 2 9 11 5 6 4 5 5 10 4 2 5 6 9 13 12 16 5 3v2l4 1 4 3-1 5-8 5-2 5-5 2-7-3 1-4 6 3 3 1v-6l1-5-7-11-5-10-4-4-1-5h-5l-4-4-2-4-9-3 3-5-4-5-5-5-2-4-10-10-10-20h-2z" fill="#FAD3AB" /><path transform="translate(1091,756)" d="m0 0 1 3-4 14-2 3-5 24-2 19v13l2 7 1 14-3 17-1 1v12l4 11 5 13 2 2-2 6-2 2-4-4-3-19-2-2-3-9v-32l-1-8v-17l4-20 2-11 5-19z" fill="#F8CB9A" /><path transform="translate(957,513)" d="m0 0h3l-3 9-6 12-6 7-8 10-4 4-14 28-3 15-2 5-2 9-4 3-5 2-4 2-2-2 4-4h2l1-6 3-5h3l-1-4 1-2h2l2-15 8-16 8-18 9-13 3-4 4-6 5-4 4-6z" fill="#EFB481" /><path transform="translate(1292,628)" d="m0 0 2 2v4h2l4 13-1 6-4 6-3 1-2 4h-2l-2 4-10 9-5 4h-2v2l-6 5-7 8-7 9-3 6v15l-1 2 2 1 1 5 2 5 2 1v2l4 2 5 5 6 3 7 2v2l5 2 8 3v2l14-1-2 2h-15l-16-8v-2l-9-1-6-5-3-1-7-9-3-8v-14l2-6h2v-2h2l2-6 3-6 9-10 11-10h2l1-3 7-5 6-11 4-4 3-9-1-6-1-2z" fill="#F1B782" /><path transform="translate(384,499)" d="m0 0 2 3 2 2 2-2 4 5-1 4h2l6 6 6 14 7 5v2l3 1h-2v3l5 2 12 7 18 4 16 4 13 5 21 6 24 7 6 3 8 6 7 1v2l6 2 1 4 7 1 5 2-3 3-5-2-11-6-12-6-8-5-11-3-15-5-9-2-6-3-21-6-5-3-18-2-8-3-5-4-5-2-8-6-4-6-7-6-4-10-4-5v-2l-5-1-6-10zm4 6 1 2zm1 2 1 2z" fill="#FBD8B2" /><path transform="translate(973,480)" d="m0 0 1 2-4 1-1 4-10 12-14 21-6 10-1 2h-2l-2 5-8 14-5 8-2 5-8 13-4 11-2 6-5 6-4 6-2 1 3-10 2-6 1-9 5-5 5-13 6-10 4-9 1-2 5 1 2-1v-9l2-3h5l2-3-1-5 3-1 2-5 4-6 1-5h2v2l4-4 1-7 2-2 5-2 4-4 4-6z" fill="#FBD7AE" /><path transform="translate(1344,1059)" d="m0 0 5 1 8 4 6 5 10 5 3 3-2 3 8 3 2 5v5l-4 4-4-2-1-2-5-2-3-3h-7l-2-4-1-3-10-6v-2h-2v-2l-2-1 1-1-6-2 4-6z" fill="#F0B786" /><path transform="translate(873,225)" d="m0 0 25 2 11 2 14 1v1h-25l-2 1v2l10 2 10 1 29 1-1 2-28 2-4 1 40 4 21 4v1l-11 1h-37-3l-15-10-16-9-8-4v-2l-10-2z" fill="#F8C595" /><path transform="translate(155,807)" d="m0 0h2l3 6h2l-3 9-6 12-5 19-6 11-5 4-6 16-2 1 4-17 1-26 2-1 2 1v-2l3 1 3-8 1-9h4 3z" fill="#F8CB9A" /><path transform="translate(339,552)" d="m0 0 4 5 2 4 5 4 2 3v12l-15 10-6 5-4 2-4 5-13 10-11 9-10 9-5 5-5 6-5 7-8 7h-2v2l-8 6-4 2 4-6 9-10 8-7 2-3h2l2-5 7-6 5-7 5-3 3-5 8-6 10-6 5-5 4-2 5-5 6-1 2-4 4-3h2l1-5 2 1 1-9-6-3-3-5z" fill="#FCD9B3" /><path transform="translate(1017,315)" d="m0 0h2v2l6 1 1 3h2v2h3l3 3v2l5 2 8 7 5 5 5 4 6 7v4h2l3 5-1 4-2 1-9-7-9-10-2-1v-2l-4-2-4-4v-2l-5-2-3-3v-2h-2l-1-3-5-5-4-5z" fill="#FAD3AA" /><path transform="translate(1289,624)" d="m0 0 3 2 1 10 2 5v5l-2 2-2 7-5 5-5 9-7 5-5 5-10 9-8 9-2 5-3 6h-2l-1 2 1-7 7-10 12-14h2v-2l10-8 1-3h2v-5l1-4 1-13 1-6 2-6 6-3z" fill="#FAD3AB" /><path transform="translate(355,434)" d="m0 0h5l4 8 1 3 1-6h2l3 11 3 22 1 2h3l5 21 1 4h-2l-5-13-3-6-10-32-5-8-5 2-7 14-2 3h-2l-3 9-4 11-3 16-1 24h-1v-45l1-9 2-1 1 7 2-3 3-14 4-6 3-6 2 3 5-10z" fill="#F8CD9E" /><path transform="translate(1024,123)" d="m0 0h5l3 2v2l13 3 5 3 6 4 4 4 12 4 6 4 1 2h-4v-2l-6-2-5-1-7-1-1-1-18-1-5-3-5-5-4-3v10l3 7v3l-4 1-1-3v-25z" fill="#EFB482" /><path transform="translate(925,254)" d="m0 0h37l22 4-3 6-6-1-7 1h-6l2 2h-24l-12-9zm18 9-1 2h9v-1z" fill="#FAD3AA" /><path transform="translate(1217,578)" d="m0 0 1 2-9 19-5 10-8 23-2 5-6 10-4 5-10 8-10 6-3 3-5 3-13 12-9 11-8 10h-2l-2 4-2 1 2-4 9-13h2l2-4 8-10 9-9 9-7 4-1v-2l7-4h2v-2l5-3 6-7 5-10 10-24 4-9 12-22z" fill="#F8CB9A" /><path transform="translate(650,1147)" d="m0 0 7 1 10 3 3 4 3 7v5h3l1 4 9 2 12 4 16 2 7 1h18l7 3 16 2 11 2 28 3 14 2v1h-9l-51-6-31-4-35-4-10-2-6-8 1 4-4-2-3-5-2-10-3-3-12-5z" fill="#FCDCB7" /><path transform="translate(493,1009)" d="m0 0 5 4v2l5 2 3 7v6l-3 4v4l4 1v2h2v2l4 2h-3l-11-2-6-4v-2l-5-2-2-5-2-1 2-7 7-2 1-6z" fill="#EFB481" /><path transform="translate(1270,519)" d="m0 0 16 1 5 5 3 4v5l3 1v2l-4-1-3-3v-2l-5-2-2-3-5 1-2 2h-9l-8 2v2l-9 5-5 3h-2l-2 5-3 5h-2l-2 6-4 6-5 3 2-5 7-10 10-14 11-9 10-8z" fill="#FAD3AA" /><path transform="translate(1032,122)" d="m0 0 6 1v2l4-2h4l6 2 2-1v8h4l1-2 5 1h7l5 2 3 1-1 4 4 3v-2l6 1 2 3h4v4l1 4 10 2 4 2 7 2v1l-8 1v2l-5-2-4-3-9-4-3-2v-2l-5-1-4-3-3-1v-2l-5-2-2-1v-2l-5 1-11-4-5-4-12-3-3-2z" fill="#F8CC9C" /><path transform="translate(867,228)" d="m0 0h1l2 19 3 8v5h2l6 17 5 13 6 18h2l4 8 2 6 5 5v2l-5 1-3-5-2-7h-2l-6-12-2-8-2-1-4-10-5-18 1 9-4-5-4-13zm17 65 1 3z" fill="#F5C190" /><path transform="translate(491,1037)" d="m0 0h2l4 4 7 4 7 2 6 3v2l6 2 7 5 2 7-2 9 2 5 13 6 7 3v3l-4-2-5-2-13-5-6-3-4-4-1-8-1-6-2-6-16-10-6-3-3-3z" fill="#F8CB9A" /><path transform="translate(1504,529)" d="m0 0h3v2l-2 2v1l10 1 15 1 7 3-1 3-4-1-6 1v2l-3 1-14 1-7 1-11-1-4-2-3-1 6-4 1-2 10 2v-2l2-1-2-3 1-2-5 1v-2z" fill="#BE493B" /><path transform="translate(1048,312)" d="m0 0 2 1v4l4 3 7 1v4l-1 3h2l1 4 6-2 1 3v3l4 2 4 1-2 6h2l2 6-1 4-3-1-4-4-2-1v-2l-4-2-5-5-9-10-4-5-4-4-1-6z" fill="#F2BC8B" /><path transform="translate(661,1145)" d="m0 0h7l7 1 7 7v5l4 2 5 3 6 4 5 2 12 5 6 2 20 2 5 2v2l30 1 8 1v2l-31-1-8-2-5-2-25-3-11-2-2-2-14-4v-2l-4-2v-2l-4-2-1-1 1-7-12-6-6-2z" fill="#F0B481" /><path transform="translate(1349,411)" d="m0 0h10l4 3v2l3 1v3l3 1 3 5 3 2-3 1-11-8-3-1v2l-11 2-1 1-7 1-2 2-2 10-2-3 1-6-5 1-5-1v-2l6-2h5v-3l-3-1 5-4 6-4z" fill="#6C3C2E" /><path transform="translate(1170,1135)" d="m0 0 3 1 3 5 3 7 7 8-4 1-9-9-2-1h-7l-3 4-6 2-9 4-5 1 3 2v6l-1 3 2 7-1 4-3-6-1-7h-2l1 6-4-2-1-2 1-9 5-5 9-3 10-8z" fill="#FEE5C3" /><path transform="translate(1259,572)" d="m0 0 2 2 3 8 3 7 8 7 10 10 2 5-3 1-8-3-8-4-5-5v-3h-2l-5-12-2-5h4l-1-6z" fill="#3B1C18" /><path transform="translate(1302,527)" d="m0 0h8l8 6 1 2 8 3 13 2 15 4 12 1 9 2h22l8-2-2 6-3 1-10-1h-12l-11-1-13-3-10-2-2-1-17-2-10-4-7-6-7-1-5 4 2-5z" fill="#F8CB9A" /><path transform="translate(332,517)" d="m0 0 3 3 1 4v3l2 5 2 3v10l6 10 2 2-3 2 4-1 1 3 4 2 7 8v2l13 1v1l-9 1-7-2-10-10-5-4-3-6v-2h-2l-2-4-1 4-2-1-2-10v-20z" fill="#FDC07E" /><path transform="translate(1352,1318)" d="m0 0h1v22l-3 8h-4l-6 16-2 5-1-4-7 16-5 5-11 12-5 3v-3l9-7 5-10 6-10 2-3 2-6 3-6 2-3h2l2-5 3-5 4-3 1-9z" fill="#FBD5AE" /><path transform="translate(893,607)" d="m0 0 1 4-10 22-3 11-6 4-11 2-24 4-16 1v2l-2-1v-1l-20 1v-2l28-3 15-1 5-1 19-2 4-2v-2l-6-2 4-2 2 1 1-2h3l2-5 7-11 3-11z" fill="#FAD4AB" /><path transform="translate(1226,248)" d="m0 0h5l3 3h3v2h3l3 9 2 1v-5h2l2 9 5 2 6 3h4v2l-2 1 2 4 6 4 4 8 6 5 4 8v2l-4-1-10-12-3-4v-2h-2l-3-4v-2h-2v-2l-3-1-5-5-9-7v-2l-4-2v-2l-4-2-6-7z" fill="#FAD3A8" /><path transform="translate(1136,1172)" d="m0 0 2 4 2 5 5 2 3 7v9l-1 2h-2l-1 2-6-5-6-9-2-2v-3l-5-2v-2l-3-1 3-1 5 2 1-2h2l1-4h2z" fill="#F0B989" /><path transform="translate(1480,509)" d="m0 0h10l26 6 11 2 3 3-1 3-7-3-9-2-12-1h-17l-27 1 4-3 17-4h2z" fill="#FBD5AD" /><path transform="translate(1292,628)" d="m0 0 2 2v4h2l4 13-1 6-4 6-3 1-2 4h-2l-2 4-10 9-5 4-6 3-4 5h-2l-2 4-7 6 2-4 7-8 7-7 5-4h2l1-3 7-5 6-11 4-4 3-9-1-6-1-2z" fill="#F6C593" /><path transform="translate(1253,555)" d="m0 0 4 1 4 12v4h2l2 9-4-4-2-4-1 2 1 5-4 1 5 11 1 5h2l3 5 3 4-4-2-6-7v-2h-2v-3h-2l-5-13-1-8 1-10z" fill="#794232" /><path transform="translate(929,368)" d="m0 0 3 4 6 10 12 16 9 11 2 2 4 5v3l3 1 2 3-1 4v-2l-5-2-5-4-1-6-3-1-3-2-6-5 1-4h-2l-1-4h-2v-2l-4-4-1-7-4 1-4-4z" fill="#F1BC8C" /><path transform="translate(1402,1200)" d="m0 0 9 3 13 2 8 2 25 5 19 2v2l3 1-22-1-20-2-10-2v-1h9l-17-2-16-1-1-1z" fill="#F9CFA2" /><path transform="translate(1222,1158)" d="m0 0 4 2 11 15 5 3v2l4 1 4 3-1 5-8 5-2 5-5 2-7-3 1-4 6 3 3 1v-6l1-5-7-11-5-10-4-4z" fill="#FBD4AC" /><path transform="translate(384,499)" d="m0 0 2 3 2 2 2-2 4 5-1 4h2l6 6 6 14 7 5v2l3 1h-2v3l5 2 12 7 18 4 7 2 4 3-21-2-8-3-5-4-5-2-8-6-4-6-7-6-4-10-4-5v-2l-5-1-6-10zm4 6 1 2zm1 2 1 2z" fill="#FBD8B1" /><path transform="translate(648,1145)" d="m0 0 11 1 11 4 6 4v6l2 5 4 2 6 5 20 4 14 2 9 1-1 2h-9l-11-2-12-1-5-2-13-3-4-4v-2h-3l-3-9-3-6-13-4-6-1z" fill="#F8CB9A" /><path transform="translate(1113,163)" d="m0 0 22 4-5 6 13 3 7 2-1 4 1 3h6l2 1v2l6-1v3l-6 2-4-2-6-2v-3l-9-3-10-7-5-3v-2l-4-1-7-4z" fill="#FAD4A9" /><path transform="translate(1484,516)" d="m0 0h17l16 2 9 3 3 2v2l2 1-4 1-2-2-14-2-7 1-4-1v-2h-7l-7-1-4 1h-11l-4-2v-2z" fill="#CE5341" /><path transform="translate(896,1203)" d="m0 0h11l6 3 6 2 20 13 3 2v2l4 2 13 9 4 5v2l5 1 11 8-2 1-12-6-5-4v-2l-21-15v-2l-3-1v-2l-5-2-14-7-7-4-18-2z" fill="#F9D1A5" /><path transform="translate(1536,1198)" d="m0 0 2 1 2 6-14 7 3 2-7 3-6 1h-24l-13-1-3-2 4-1 14 1 13-1 15-5 5-3 5-5z" fill="#F9CEA1" /><path transform="translate(1354,756)" d="m0 0 5 2 3 3v2l3 1v2l4 1 4 5 4 4v3l-10-1-12-9-1-3-4-4v-5z" fill="#401E1A" /><path transform="translate(418,969)" d="m0 0h26l5 3 9 2 1 3 3 1 3 6 8 7 2 1v2l4 2 3 5-4-2-16-15-4-4-2-4-4-1-17-1-41-1v-1l22-2z" fill="#FDDEB9" /><path transform="translate(922,245)" d="m0 0 21 1 20 3 10 2v1l-11 1-38-1z" fill="#FBD5AE" /><path transform="translate(893,1200)" d="m0 0h14l7 1 16 11 24 18 4 2 5 5 10 9h-3l-7-3-4-5v-2l-5-2-12-9v-2l-4-2-19-12-11-6h-15l-8-1v-1z" fill="#F5B97F" /><path transform="translate(347,442)" d="m0 0 2 3 2-2-1 4-6 9-3 10-5 13-3 16-1 24h-1v-45l1-9 2-1 1 7 2-3 3-14 4-6z" fill="#FEE3C1" /><path transform="translate(1245,432)" d="m0 0 2 4v1l15 1v2h-11l-10 2-5 2-3 3-2 3h-6l-1 3-6 1 4-6h3l5-10 2-1v-2h6z" fill="#47241D" /><path transform="translate(1512,1112)" d="m0 0h6l-4 2-14 5-3 3h-2l-2 4-8 7-7 5-11 1-8-4v-2l9-1 8-1 3 1 14-9 3-4 1-5z" fill="#FBD7B0" /><path transform="translate(529,1058)" d="m0 0 3 1 3 6 2 3 1 11 9 5h3l4 4 16 8-1 3-1-3h-7l-8-4-4-4-11-4-8-5-1-7 2-8z" fill="#FEC17C" /><path transform="translate(997,307)" d="m0 0 5 1 6 4 6 2v2h3l4 7 5 5 1 4h2l4 5 4 2 6 7 2 1v2l4 2 11 12-1 2-24-24-8-7-11-10-11-9-8-7z" fill="#F9BB84" /><path transform="translate(1313,612)" d="m0 0 7 1 20 6 23 6 16 3 10 4-1 4-1-3-31-6-30-8-9-3-1-3z" fill="#EC7D56" /><path transform="translate(383,499)" d="m0 0 2 4 5 9 5 2 6 9 4 9 6 5 4 6 9 7 1 5-5 5-4 1-3-2h5v-2l4-2-1-4-11-10-10-10-3-2-4-9-7-9-4-7z" fill="#F3B880" /><path transform="translate(1303,1293)" d="m0 0h24l11 1 2 5-7-3h-28v2l-8 1-6 2h-6v2l-5 1-1 2-1-8 11-2z" fill="#FFE8C7" /><path transform="translate(867,228)" d="m0 0h1l2 19 3 8v5h2l6 17 2 8-3-3-5-10v2l-1 4-4-8-3-10z" fill="#FA9363" /><path transform="translate(1032,122)" d="m0 0 6 1v2l4-2h4l6 2 2-1v8h4l1-2 5 1h7l5 2 3 1-1 4 4 3v-2l6 1 2 3h4v4l-3 1v-2l-8-4-5-1-7-5-8-2-11-1-5-4-12-3-3-2z" fill="#FBD8B2" /><path transform="translate(707,1178)" d="m0 0 14 2h18l7 3 16 2 11 2 28 3 14 2v1h-9l-51-6-31-4-11-1-6-2z" fill="#FCDDB8" /><path transform="translate(491,1037)" d="m0 0h2l4 4 7 4v2l5 1 9 6 4 1 3 4v19l2 3-4-2-3-3-1-8-1-6-2-6-16-10-6-3-3-3z" fill="#FBD7B0" /><path transform="translate(1410,439)" d="m0 0h2l4 9 3 13 4 1 3-1 1 5 14 5v3l8 1 1 2-2 4h-2v-2l-5-2-5-4-8-3-8-4-4-4-3-8-4-11-1-3z" fill="#FCDBB5" /><path transform="translate(146,823)" d="m0 0 6 2-6 13-4 10-4 8-3 12h-1v-26l2-1 2 1v-2l3 1 3-8 1-9z" fill="#FBD5AD" /><path transform="translate(1245,714)" d="m0 0h1v12l-1 2 2 1 1 5 2 5 2 1v2l4 2 5 5 6 3 7 2v2l5 2 8 3v2l14-1-2 2h-15l-16-8v-2l-9-1-6-7-3-2-1-3-2-1-1-6h-2v-18z" fill="#FB945E" /><path transform="translate(1434,1183)" d="m0 0 10 4 13 4 12 3 10 2 16 1 1 2h-13l-18-3-17-4-10-1-10-3 1-3 3-1z" fill="#EFB482" /><path transform="translate(1572,1112)" d="m0 0h8l1 4v36l-2 7-3 1-5-4h2l1-5 4-14v-19l-1-2-4-1z" fill="#FEE8C7" /><path transform="translate(921,543)" d="m0 0 4 1-2 4-7 11-1 6-9 17-6 15-3 5-1-2 3-9 1-9 5-5 5-13 6-10 4-9z" fill="#FCDBB5" /><path transform="translate(980,441)" d="m0 0h2l4 6 8 5-1 6-3 6-5 5-3 1-1 3h-2l2-5 2-6v-10l-1-7z" fill="#FBD4AC" /><path transform="translate(809,657)" d="m0 0h13v2l-4 2-2 4 2 8h-2v-2l-9-3-6-3-1-5z" fill="#EFB482" /><path transform="translate(1516,535)" d="m0 0 14 1 7 3-1 3-4-1-6 1v2l-3 1h-17l1-3 5-1h7l-6-2v-2z" fill="#F68859" /><path transform="translate(927,546)" d="m0 0v3l-6 10-2 5-8 13-4 11-2 6-5 6-4 6-2 1 2-5 6-12 6-14 11-20 7-9z" fill="#F8CB9A" /><path transform="translate(894,308)" d="m0 0 4 3 3 6v2l3 1 2 6 3 1 2 5 5 9 2 3-2 3-1-2-3 2-5-9-4-13-4-3-2-6-3-5z" fill="#FB925F" /><path transform="translate(33,1119)" d="m0 0 2 4 1 14 3 11 6 11 7 6-3 2-5-1-3-7v5l-4-4-2-9-2-24z" fill="#FAD1A5" /><path transform="translate(414,968)" d="m0 0h31l8 3 1 2-7-1-3-2h-26l-2 1-12 1h-44v-1l44-2z" fill="#F9D0A4" /><path transform="translate(873,225)" d="m0 0 25 2 11 2 14 1v1h-25l-2 1v2l6 3v2l-5-2-14-7v-2l-10-2z" fill="#F7C090" /><path transform="translate(623,635)" d="m0 0 5 2 8 4 6 1 1 2 3-1 2 1v2l-3 1 6 4 9 3v2l-10-3-20-9-10-7z" fill="#FCDAB4" /><path transform="translate(949,509)" d="m0 0h2l-2 5-9 14-2 4h-2l-2 5-5 9-5 4-7 11h-2l2-5 7-10 4-3v-9l2-3h5l5-8z" fill="#FAD6AC" /><path transform="translate(222,980)" d="m0 0h18l4 1v6l-2 2 1-7-32 2-36 6-13 1v-1l30-6z" fill="#FDE5C7" /><path transform="translate(762,1185)" d="m0 0h14l18 1 12 2 16 2v1l-14 1-23-3-20-2z" fill="#F9CFA2" /><path transform="translate(487 1e3)" d="m0 0h2l4 6 2 5-2 5-7 3-1 6 3 5-5-2-2-1v-2h-2l1-4v-4l6-2 1-3h2l-2-4z" fill="#F8CD9E" /><path transform="translate(1366,1189)" d="m0 0 6 1 9 3 19 4 2 2h-18l-10-2-8-4 2-1v-2z" fill="#F4BF8D" /><path transform="translate(1297,607)" d="m0 0 16 2 48 14 7 2v1l-10-1-29-8-12-4-12-2-8-3z" fill="#F5BF8E" /><path transform="translate(1140,1155)" d="m0 0h7l-1 2-5 1 3 2v6l-1 3 2 7-1 4-3-6-1-7h-2l1 6-4-2-1-2 1-9z" fill="#FEE6C6" /><path transform="translate(355,434)" d="m0 0h5l8 16 3 13-1 3-6-18-5-8-5 2-7 14-2 3h-2l1-4 6-9 3-10z" fill="#F9CFA2" /><path transform="translate(1373,631)" d="m0 0 14 1 1 1v7l-2 8-4-2-7-13z" fill="#43211B" /><path transform="translate(645,1142)" d="m0 0 16 3 13 5 5 4v7l5 5 3 2v2l9 2 6 2-2 1-12-2-10-8-3-5v-6l-9-5-7-2-11-2z" fill="#FEC17C" /><path transform="translate(1346,413)" d="m0 0 5 1 11 3v2l-12 1-11 4-4 3-3-1 4-4 3-1 1-4z" fill="#613A2C" /><path transform="translate(1402,1200)" d="m0 0 9 3 13 2 2 1v2l8 1v1l-31-2-1-1z" fill="#FEE8C7" /><path transform="translate(929,368)" d="m0 0 3 4 6 10 6 8 2 5-6-1-3-6v-4l-4 1-4-4z" fill="#F3C092" /><path transform="translate(314,973)" d="m0 0 7 1v3l-5 3-3 5-3 15-2-3v-12l1-8 2-3z" fill="#FEE4C3" /><path transform="translate(1270,519)" d="m0 0 16 1 5 5 3 4v5l3 1v2l-4-1-3-7-3-1-3-4h-8l-9-2-2-2z" fill="#F8CB9A" /><path transform="translate(52,1166)" d="m0 0 6 4 9 3 5 1h8l3-3h2v6h-13l-19-2-1-1z" fill="#FBD9B1" /><path transform="translate(586,617)" d="m0 0h7l13 3 4 6 10 4-1 4-4-1-14-9-15-6z" fill="#FCD9B2" /><path transform="translate(1036,1261)" d="m0 0 6 1 8 4 17 12 5 4-1 2-13-8-20-12z" fill="#FB935C" /><path transform="translate(896,1203)" d="m0 0h11l6 3 6 2 9 6 1 3-6-2-12-6-1-1-18-2z" fill="#FBD5AD" /><path transform="translate(1350,419)" d="m0 0h10l-2 1v2l-11 2-1 1-7 1-2 2-2 10-2-3 1-6-5 1-5-1v-2l9-2h3l5-3z" fill="#D75446" /><path transform="translate(384,499)" d="m0 0 2 3 2 2 2-2 4 5-1 4h2l6 6 5 12-1 2-4-5-6-12-5-1-6-10zm4 6 1 2zm1 2 1 2z" fill="#FCDDB8" /><path transform="translate(269,1076)" d="m0 0 5 3v2l7 1h29l2-4 4-2v7l-4 1h-40l-3-3z" fill="#FAD6AE" /><path transform="translate(1302,1170)" d="m0 0 5 1 13 4 11 4 20 6-4 1-12-3-13-4-19-5z" fill="#FDE3C5" /><path transform="translate(650,1147)" d="m0 0 7 1 10 3 3 4 3 7v3h-2v2l-4-1-2-10-3-3-12-5z" fill="#FBD7B0" /><path transform="translate(909,237)" d="m0 0 36 1-1 2-28 2h-7l1-3z" fill="#FCDBB6" /><path transform="translate(1529,1105)" d="m0 0h38l5 1v2l-15-1h-21l-13 3-1 2-3-1-2-4 2-1z" fill="#FFE8C7" /><path transform="translate(457,557)" d="m0 0 9 2 13 5 18 5-1 2-12-3h-5l-7-2-9-3-2-4z" fill="#FDDEB9" /><path transform="translate(347,442)" d="m0 0 2 3 2-2-1 4-6 9-3 10-3 7h-1l1-9 2-10 4-6z" fill="#FBD6AE" /><path transform="translate(324,1032)" d="m0 0 5 1 1 1 1 15v14l-2 5-4-1 1-3 2-1v-13l-3-16z" fill="#FDE5C6" /><path transform="translate(867,241)" d="m0 0h1l3 16v5h2l1 7 1 9-4-5-4-13z" fill="#FEEACE" /><path transform="translate(993,1263)" d="m0 0 7 4 3 2v2l4 2 11 8 16 11 4 4-5-2-18-12-10-7-10-9-2-1z" fill="#FDE4C3" /><path transform="translate(1536,1198)" d="m0 0 2 1 2 6-12 6-7 1 1-3 5-3 5-5z" fill="#FAD3A7" /><path transform="translate(881,279)" d="m0 0 3 3 4 6 3 7v4h2l4 8 1 4-6-3-5-11-2-7-4-9z" fill="#FB925C" /><path transform="translate(1268,1307)" d="m0 0 10 1-4 2-1 4-8 3h-13l-1-3 6-1h3l9 1-3-5z" fill="#FFE8C7" /><path transform="translate(125,880)" d="m0 0h1l1 7 2-1-4 17-2 9h-1v-18l1-10z" fill="#F9CFA3" /><path transform="translate(1241,429)" d="m0 0h6v2l6-1 1 3 2 1v2l6 1v1h-16l-1-5-1 1h-6v-2z" fill="#DE694C" /><path transform="translate(876,274)" d="m0 0 2 1 4 9 2 1 3 6 2 8 1 5-2-1v-3h-2l-3-3-4-10-3-11zm8 19 1 3z" fill="#F5AC76" /><path transform="translate(539,586)" d="m0 0 6 1v2l6 2 1 4 7 1 5 2-3 3-5-2-11-6-7-4z" fill="#FCDAB4" /><path transform="translate(1394,768)" d="m0 0 3 1-1 7-3 6h-2v2h-6l-5-2v-2l9-2 3-1v-4-4z" fill="#411F1A" /><path transform="translate(1486,633)" d="m0 0h1l-1 7h-18l-10-2 2-3h5l5 2h7l8-3z" fill="#FDEFE3" /><path transform="translate(339,552)" d="m0 0 4 5 2 4 5 4 2 3v12l-9 6-4 1 4-4 6-4 1-2v-7l-4-4-3-1-3-5z" fill="#F9CFA2" /><path transform="translate(1259,752)" d="m0 0 13 1 2 1v2l5 2 8 3v2l14-1-2 2h-15l-16-8v-2l-9-1z" fill="#F6BF8D" /><path transform="translate(1242,710)" d="m0 0h1v18l2 9 1 3 4 1 1 3 6 5h-3l-4-2-7-9-3-8v-14z" fill="#F8CB9D" /><path transform="translate(331,521)" d="m0 0h1l3 11 1 16-1 4-2-1-2-10z" fill="#FEE3C0" /><path transform="translate(875,1201)" d="m0 0h10l10 1h13l8 4-3 1-6-3h-11l-1 1h-10l-10-2z" fill="#F9D0A2" /><path transform="translate(1032,122)" d="m0 0 6 1v2l4-2h4l6 2 2-1v9l-4-2-5-3-10-2-3-2z" fill="#F8CD9E" /><path transform="translate(702,662)" d="m0 0h51v1l-10 2-28-1-13-1z" fill="#F8CB9A" /><path transform="translate(1208,229)" d="m0 0h5l4 2v8l7 1 5 1 1 4-4-1v3h-2l-3-3v-2l-5-2-2-2v-3h-2l-4-4z" fill="#FAD5AB" /><path transform="translate(1054,133)" d="m0 0h9l9 3 14 10 1 2-5-1-4-3-3-1v-2l-5-2-2-1v-2l-5 1-9-3z" fill="#F8CB9A" /><path transform="translate(1545,535)" d="m0 0 3 1-2 28-2 3-4-1 4-12 1-13z" fill="#FBEFE7" /><path transform="translate(1352,1318)" d="m0 0h1v22l-3 8-4-2 2-5 2-6 1-13z" fill="#FFE8C7" /><path transform="translate(1574,1115)" d="m0 0 4 1 1 2v19l-4 14-2 5h-2l1-5 5-18v-12l-3-4z" fill="#FBD4AC" /><path transform="translate(921,543)" d="m0 0 4 1-2 4-11 18-5 11-1-3 5-12 5-8 4-9z" fill="#FFE8C7" /><path transform="translate(1484,1129)" d="m0 0 2 1-6 4h-2v2l-11 1-8-3 4-2h8l5-1 3 1z" fill="#FFE8C7" /><path transform="translate(830,651)" d="m0 0h9v2l-8 1-1 1h-6v2l-2-1v-1l-20 1v-2z" fill="#FEE4C1" /><path transform="translate(984,446)" d="m0 0 10 6-1 6-3 6-5 5-3 1-1 3h-2l2-5 8-8 1-6-1-3-4-2z" fill="#F8CD9E" /><path transform="translate(1436,1210)" d="m0 0 12 2 17 3v1l-22-1-16-3v-1h9z" fill="#FFE8C7" /><path transform="translate(1361,1074)" d="m0 0h7l4 2v5h-7l-5 1-1-5z" fill="#FAA967" /><path transform="translate(1349,411)" d="m0 0h10l4 3v2l-5-1v-2l-6-1v2h-6l-4 3h-2l-1 5h-3l-1 2v-2l-3-1 5-4 6-4z" fill="#DB5C47" /><path transform="translate(1313,332)" d="m0 0 4 1v6l4 3h5l4 2-2 5-5-1-12-12z" fill="#FEE8C7" /><path transform="translate(1228,1407)" d="m0 0 7 1 10 4v2l3 1h-12l-6-2-1-3 3-1z" fill="#F8C590" /><path transform="translate(553,1092)" d="m0 0 4 1 4 2 7 1 4 6 3 1 1 7-8-8-7-4-8-5z" fill="#F8CB9A" /><path transform="translate(414,968)" d="m0 0h31l8 3 1 2-7-1-3-2h-40v-1z" fill="#F8CB9A" /><path transform="translate(1568,1164)" d="m0 0h1l-1 7-3 4-1 9-1 2-8 2 4-7 2-2 6-14z" fill="#FFE8C7" /><path transform="translate(970,425)" d="m0 0 5 5 6 8v2h2l5 5 5 6-5-2-5-5-1-3-4-2-7-8z" fill="#F3C091" /><path transform="translate(1027,333)" d="m0 0 4 2 6 4 6 7 2 1v2l4 2 11 12-1 2-24-24-8-7z" fill="#FCA76A" /><path transform="translate(1294,1301)" d="m0 0 4 1v2l-4 2-12 2-4 1 2-5 2-1z" fill="#F8CC9D" /><path transform="translate(549,1090)" d="m0 0 4 2 11 7 6 4 5 6 6 5-1 2-9-7-4-5-15-10z" fill="#FBD9B2" /><path transform="translate(494,1015)" d="m0 0h2v5l-4 4-4 2v5h2l3 6-5-2-2-5-2-1 2-7 7-2z" fill="#FDC27E" /><path transform="translate(403,529)" d="m0 0 8 5 3 2v2l3 1h-2v3l5 2 5 3v3l-4-2-6-4-4-5-8-8z" fill="#FAD5AB" /><path transform="translate(1241,541)" d="m0 0h2l-2 5-3 5h-2l-2 6-4 6-5 3 2-5 7-10z" fill="#FAD1A6" /><path transform="translate(1284,306)" d="m0 0 4 1 3 4 2 4 6 4 5 5v-2h2l1 7v3l-5-6-5-5-5-4-2-1-3-6-3-2z" fill="#FEE6C5" /><path transform="translate(953,1235)" d="m0 0 6 2 4 4v2l5 1 11 8-2 1-12-6-5-4v-2l-7-5z" fill="#FCDBB5" /><path transform="translate(1368,1190)" d="m0 0 1 2h6l5 2v2l16 2v1h-12l-10-2-8-4 2-1z" fill="#FEE6C5" /><path transform="translate(103,1023)" d="m0 0h1v12l-1 23h-1l-1-6v-24z" fill="#FDEAD3" /><path transform="translate(969,286)" d="m0 0 5 1 5 2 3 5 9 6 6 5-1 2-16-12-11-8z" fill="#FAAF71" /><path transform="translate(1152,1199)" d="m0 0 2 2 5 15 3 1v3l2 1-5 1-5-5-1-12-1-1z" fill="#F9CFA1" /><path transform="translate(893,1200)" d="m0 0h14l7 1 6 4-3 1-9-3h-15l-8-1v-1z" fill="#F7BB7E" /><path transform="translate(1343,411)" d="m0 0h6v1l-6 2-10 7 2 1v3l-6 2h-5l3-5 5-3z" fill="#F7905C" /><path transform="translate(1009,285)" d="m0 0 18 4v4l-2 2-4-3-9-3-3-2z" fill="#FAD7B0" /><path transform="translate(868,218)" d="m0 0h16l18 1 7 1v1h-13l-22-1-3 3-3-1z" fill="#FEE6C4" /><path transform="translate(1313,612)" d="m0 0 7 1 14 5v2l7 1v1l-8-1-16-5-1-3z" fill="#E66B4E" /><path transform="translate(890,227)" d="m0 0h8l11 2 14 1v1h-25l-4 1v-2l-4-2z" fill="#FCDAB4" /><path transform="translate(946,506)" d="m0 0h2v2l3-1v2h-2l-2 5-7 11-3 3-1-5 3-1 2-5 4-6z" fill="#FDDFBB" /><path transform="translate(1145,329)" d="m0 0 1 3 3 1v6l-3 2-9 3-2 1-2 4v-7l5-2 6-1z" fill="#FEE4C2" /><path transform="translate(1273,1309)" d="m0 0h5l-5 8-8 4-10-3v-1l10-1 8-3z" fill="#FAD1A7" /><path transform="translate(815,1191)" d="m0 0h8l7 2 17 3 1 2-32-4z" fill="#FBD8B1" /><path transform="translate(138,840)" d="m0 0h2l1 4-4 9-2 5h-1v-16l2-1 2 1z" fill="#FEE8C7" /><path transform="translate(408,536)" d="m0 0 3 1 4 6 9 7 1 5-5 5-4 1-3-2h5v-2l4-2-1-4-11-10z" fill="#F7BB7E" /><path transform="translate(621,1137)" d="m0 0 8 1 19 7v2l-16-4-11-5z" fill="#FCD9B3" /><path transform="translate(1503,571)" d="m0 0 8 2h3l-2 5-1-2h-2l-1 3-7-1-2-1v-2h2z" fill="#3B1C18" /><path transform="translate(1262,438)" d="m0 0h3l-1 3h-3l2 5h-8l-2-1v-5l-2-1h7l4 1z" fill="#EB835A" /><path transform="translate(1347,415)" d="m0 0 4 2v-2l7 1 4 1v2l-12 1h-4v-2h-2v3l-3-1 2-3h4z" fill="#40201B" /><path transform="translate(861,648)" d="m0 0h7l-4 2-24 4h-9v-1h8v-2l11-2z" fill="#FAD7B0" /><path transform="translate(366,439)" d="m0 0h2l3 11 1 13h-2l-3-13-2-4z" fill="#FBD7B0" /><path transform="translate(1510,514)" d="m0 0 17 3 3 3-1 3-7-3-9-2v-2h-3z" fill="#FDF5ED" /><path transform="translate(338,472)" d="m0 0 1 2-2 15-2 6-2 7h-1v-7l4-19z" fill="#FBBE7D" /><path transform="translate(1433,470)" d="m0 0 8 1v3l8 1 1 2-2 4h-2v-2l-5-2-5-4-3-1z" fill="#FDDFBA" /><path transform="translate(484,1020)" d="m0 0 4 1h-2l-1 8 3 5-5-2-2-1v-2h-2l1-4v-4z" fill="#FAD3A6" /><path transform="translate(893,607)" d="m0 0 1 4-8 17-3 1 4-10 2-8z" fill="#FBD6AC" /><path transform="translate(1252,552)" d="m0 0h3l-1 4-3 5-1 12 2 11-3-3-1-7v-11l3-9z" fill="#ED8D63" /><path transform="translate(351,561)" d="m0 0 10 10v2l13 1v1l-9 1-7-2-4-5-2-5-2-2z" fill="#FEC17C" /><path transform="translate(918,349)" d="m0 0 6 9v2h2l1 3-2 5-4-4-3-10z" fill="#F2BC8C" /><path transform="translate(1149,1367)" d="m0 0 16 8 7 5 7 3-3 1-11-5-11-7-5-3z" fill="#FEE6C8" /><path transform="translate(459,977)" d="m0 0 3 1 3 6 8 7 2 1v2l4 2 3 5-4-2-16-15-2-2z" fill="#F9D0A2" /><path transform="translate(1293,630)" d="m0 0 1 4h2l4 13-1 6-4 6h-3l3-7 2-1-1-9-3-7z" fill="#F2B67F" /><path transform="translate(1245,432)" d="m0 0 2 4v1l15 1v2h-18l1-3-7-1 2-2z" fill="#5C3428" /><path transform="translate(1205,1396)" d="m0 0 5 2 15 7 3 2-8-1-12-4-3-5z" fill="#FCDCB7" /><path transform="translate(1524,1212)" d="m0 0 5 1-1 2-12 3h-24v-1l21-1z" fill="#FFE8C7" /><path transform="translate(914,1205)" d="m0 0 8 1 12 9 1 3-5-2-11-7z" fill="#FABD7D" /><path transform="translate(1306,1401)" d="m0 0 3 1-8 7-4 4-8 2-1-2 8-4z" fill="#FCDCB6" /><path transform="translate(1135,1208)" d="m0 0h8l3 2 1 4-1 1h-7z" fill="#F8CB9A" /><path transform="translate(435,966)" d="m0 0 14 1 8 4v2l3 1 1 3h-2l-3-3-7-4-4-1-19-1v-1z" fill="#F9BC7E" /><path transform="translate(1330,1375)" d="m0 0 2 1-4 8-5 4-7 8-7 5v-3l9-7 9-10z" fill="#FDE2BF" /><path transform="translate(384,499)" d="m0 0 2 3 2 2 2-2 4 5v6l-2 1-4-4-4-7zm4 6 1 2zm1 2 1 2z" fill="#FCDBB4" /><path transform="translate(947,400)" d="m0 0 4 2 6 7-1 4-2-2-6-4-2-2z" fill="#FCDCB6" /><path transform="translate(1033,166)" d="m0 0 2 2 4 8 1 5h-4l-3-5-1-8z" fill="#FDEEDA" /><path transform="translate(895,317)" d="m0 0 4 2 1 3 5 5v2l-5 1-3-5z" fill="#F9D2A9" /><path transform="translate(1532,540)" d="m0 0 3 2v2l-5 2h-19v-1h12l1-2 2 1v-2z" fill="#B44739" /><path transform="translate(867,228)" d="m0 0h1l2 19 4 13-1 4v-2h-2l-4-21z" fill="#F3C090" /><path transform="translate(1271,676)" d="m0 0 2 1-11 10-1 2h-2l-2 4-7 6 2-4 7-8 7-7z" fill="#F8CB9A" /><path transform="translate(1410,439)" d="m0 0h2l3 6v10l-3-3-4-12z" fill="#FCDCB8" /><path transform="translate(896,1203)" d="m0 0h11l4 3-1 2-18-2z" fill="#FCDDB8" /><path transform="translate(155,807)" d="m0 0h2l3 8h-2l-2 5-2 4h-1l1-12z" fill="#FCDDB8" /><path transform="translate(1424,468)" d="m0 0 4 1 9 4 9 6-3 1-4-3-7-2-8-6z" fill="#F8CB9A" /><path transform="translate(35,1143)" d="m0 0h1l2 8 4 6-1 7-4-4-2-9z" fill="#FFE8C7" /><path transform="translate(1350,419)" d="m0 0h10l-2 1v2l-11 2-1 1h-6l2-2h4v-2z" fill="#EC7F55" /><path transform="translate(1302,1170)" d="m0 0 5 1 6 2v2l9 2-4 1-15-4z" fill="#FEF9F3" /><path transform="translate(1264,440)" d="m0 0 6 2 1 5h-10v-3-3z" fill="#FBAB6B" /><path transform="translate(905,329)" d="m0 0h2l6 12 1 5-2 1-5-9z" fill="#F6C799" /><path transform="translate(1102,170)" d="m0 0 4 1v2l4 2 6 7-4-1-6-4-4-5z" fill="#EFB482" /><path transform="translate(620,1134)" d="m0 0 5 1 13 5 7 2 3 3-5-1-18-6-4-1z" fill="#F8CB9B" /><path transform="translate(1512,1112)" d="m0 0h6l-4 2-15 4-2 1v-5z" fill="#FFE8C7" /><path transform="translate(1407,1101)" d="m0 0 9 1 8 4v3h-3l-1 2-2-4-11-5z" fill="#FFE8C7" /><path transform="translate(980,441)" d="m0 0h2l2 3 3 16-3 6-1-4v-10l-1-7z" fill="#FEE4C2" /><path transform="translate(125,880)" d="m0 0h1l1 9-3 8-1 6h-1v-9l1-10z" fill="#FFE8C7" /><path transform="translate(874,638)" d="m0 0h3v6l-6 4-2-1 4-2v-2l-6-2 4-2 2 1z" fill="#FFE8C7" /><path transform="translate(1403,1200)" d="m0 0 8 3 13 2 2 2h-8l-13-3z" fill="#F9CFA3" /><path transform="translate(1530,1107)" d="m0 0 4 1-5 2v2l-18 4 3-3 9-3 2-2z" fill="#F9D0A5" /><path transform="translate(168,776)" d="m0 0 7 1-6 7-3 7-1-4z" fill="#FFE8C7" /><path transform="translate(852,651)" d="m0 0h10l-4 2-14 2h-9v-1z" fill="#FB8E5A" /><path transform="translate(1516,535)" d="m0 0 9 1-3 1v2l4 1h-11l-2-1v-2z" fill="#E3684A" /><path transform="translate(336,473)" d="m0 0 1 3-4 19h-1v-14l1-6z" fill="#F9CFA3" /><path transform="translate(1232,435)" d="m0 0 6 1-1 4-4 1h-1l-3 5-4 2 5-10 2-1z" fill="#9B4839" /><path transform="translate(876,274)" d="m0 0 2 1 3 10 5 8-1 5-2-1-4-10-3-11zm8 19 1 3z" fill="#FBD8B0" /><path transform="translate(1256,1313)" d="m0 0 4 1h3 4v2l-2 1h-13l-1-3z" fill="#FEE5C3" /><path transform="translate(957,1235)" d="m0 0 5 1 11 10h-3l-7-3-4-5v-2z" fill="#F9C186" /><path transform="translate(906,579)" d="m0 0v3l-6 15-3 5-1-2 5-13 3-6z" fill="#FBD6AF" /><path transform="translate(949,509)" d="m0 0h2l-2 5-9 14-2 4-3-1 5-8z" fill="#F8CC9C" /><path transform="translate(1568,1159)" d="m0 0h2v5l-3 3-5 11-3-1v-2h2l2-5z" fill="#FBD6AF" /><path transform="translate(1480,1133)" d="m0 0m-21 1 8 2 9-1 2 1v-2h2l-2 4-11 1-8-4z" fill="#FBD4AC" /><path transform="translate(533,1081)" d="m0 0 12 5 7 3v3l-4-2-5-2-13-5z" fill="#F9D1A4" /><path transform="translate(1283,669)" d="m0 0h2l-2 4-6 5h-2v2l-7 6h-2l1-3h2v-2l10-8h2z" fill="#FB9A60" /><path transform="translate(1099,153)" d="m0 0h6l4 2 7 2v1l-10 1v-2h-3v-2z" fill="#FDDEBA" /><path transform="translate(1022,135)" d="m0 0h1l2 9 2 5v3l-4 1-1-3z" fill="#FDF3E5" /><path transform="translate(1478,1214)" d="m0 0 16 1h11v1l-9 1h-17l-3-2z" fill="#F8CC9C" /><path transform="translate(1545,535)" d="m0 0 3 1-1 17-3 3z" fill="#FCEADD" /><path transform="translate(1082,139)" d="m0 0 6 1 2 3h4v4l-3 1v-2l-8-4-3-1h2z" fill="#FFE8C7" /><path transform="translate(104,1132)" d="m0 0h2l-2 19-2 5-2 1 2-13z" fill="#F7CCA0" /><path transform="translate(116,1009)" d="m0 0 4 2-4 1-2 5-3 2-4-1z" fill="#FEEBCF" /><path transform="translate(1255,588)" d="m0 0 5 4 1 5h2l3 5 3 4-4-2-6-7v-2h-2v-3h-2z" fill="#C16247" /><path transform="translate(350,570)" d="m0 0h1v7l-5 5-6 4-2-1 5-4h2l1-5 2 1z" fill="#FFE8C7" /><path transform="translate(1502,540)" d="m0 0h6l1 6-7 1h-5v-2l8-1v-2l-3-1z" fill="#DB5D45" /><path transform="translate(1302,530)" d="m0 0 7 1 2 3-10 1-4 1 3-5z" fill="#FBD4AC" /><path transform="translate(1502,513)" d="m0 0 8 1v2l3 1h-12l-5-1 3-2z" fill="#FEE6C5" /><path transform="translate(929,374)" d="m0 0h2l6 10-4 1-4-4z" fill="#FBD8AF" /><path transform="translate(1218,239)" d="m0 0 6 1 5 1 1 4-4-1v3h-2l-3-3v-2l-3-1z" fill="#FBDAB3" /><path transform="translate(1551,1189)" d="m0 0h1v6l-2 2-8 1v-2l6-4z" fill="#FDDFBA" /><path transform="translate(1214,1185)" d="m0 0 5 1 8 8h-2v2h-2v-2l-3-1-1-3z" fill="#FCDBB5" /><path transform="translate(1486,633)" d="m0 0h1l-1 7h-9v-3l8-3z" fill="#FCF2EC" /><path transform="translate(926,544)" d="m0 0 2 1-4 5-7 11h-2l2-5 7-10z" fill="#FBD4AC" /><path transform="translate(332,517)" d="m0 0 3 3 1 4v3l1 6-3-1-2-6z" fill="#FDBF7A" /><path transform="translate(269,1076)" d="m0 0 5 3v2l7 1v2h-9l-3-3z" fill="#FCE1C0" /><path transform="translate(1280,523)" d="m0 0 5 1 2 4 4 1 2 6h-2l-1-4-5-2-2-3-4-2z" fill="#FBD4AC" /><path transform="translate(970,256)" d="m0 0 9 1 5 1-2 4-2 2-3-3v-2h-4v-2z" fill="#FEE9C9" /><path transform="translate(868,233)" d="m0 0h1l4 17v5l-3-4-2-11z" fill="#FB8F5B" /><path transform="translate(1041,123)" d="m0 0 4 1h4 4 1v7l-2-1v-2h-3v-2h-9z" fill="#FCDBB5" /><path transform="translate(1295,1407)" d="m0 0h2l-2 4-7 2v2h-11v-1l12-3z" fill="#F8CE9F" /><path transform="translate(1129,1355)" d="m0 0 5 2 15 9-2 1-6-3-7-3-1-3-4-2z" fill="#FDE4C6" /><path transform="translate(979,1253)" d="m0 0 5 2v2l5 2 4 4-4-1-12-6-1-2z" fill="#FDE0BC" /><path transform="translate(561,601)" d="m0 0 15 5 2 1v2l-6-1-11-5z" fill="#FCDBB5" /><path transform="translate(1279,598)" d="m0 0 5 1 12 6 1 2-9-3-5-2z" fill="#F0956A" /><path transform="translate(881,279)" d="m0 0 3 3 4 6 3 7-1 4-8-16z" fill="#FB6963" /><path transform="translate(1024,113)" d="m0 0 2 1 2 3 4 3v2l-8-1-2 2v-5l2-3z" fill="#FAD4A8" /><path transform="translate(1344,1348)" d="m0 0 1 2-7 19-1-3 1-6z" fill="#FFE8C7" /><path transform="translate(1561,1107)" d="m0 0h8l4 1v7h-2v-2l-3-1-3-3z" fill="#FBD5AE" /><path transform="translate(246,1041)" d="m0 0h1l1 5v7h2v8h2l-1 2-3-1-2-15z" fill="#FCE3C6" /><path transform="translate(1129 1e3)" d="m0 0h2l4 8 5 9-1 4-4-8-4-7z" fill="#FBD4AC" /><path transform="translate(485,999)" d="m0 0 6 4 2 3-1 4-3-4v-2l-5-1-2-1v-2z" fill="#F4BD87" /><path transform="translate(114,919)" d="m0 0h4l-3 11-2 1v-10z" fill="#FCDBB4" /><path transform="translate(1337,427)" d="m0 0 1 2-1 3h2l-1 8-2 1-3-2 1-3z" fill="#F4885A" /><path transform="translate(1121,165)" d="m0 0 9 1 5 1-5 6-5-5z" fill="#FEE9CB" /><path transform="translate(1363,419)" d="m0 0 6 2 3 5 3 2-3 1-11-8z" fill="#CE5141" /><path transform="translate(1193,216)" d="m0 0 7 1 1 3 4-1 3 3-5 2-2 1-2-5-6-3z" fill="#FEECD4" /><path transform="translate(1397,758)" d="m0 0 2 2 2 7v8l-2 5-2 1 2-12z" fill="#E57957" /><path transform="translate(351,571)" d="m0 0h1v9l-9 6-4 1 4-4 6-4z" fill="#FBD4AC" /><path transform="translate(364,446)" d="m0 0 4 4 3 13-1 3-6-18z" fill="#F8CB9A" /><path transform="translate(979,437)" d="m0 0 2 1v2h2l5 5 5 6-5-2-5-5-1-3-3-1z" fill="#F1B783" /><path transform="translate(1082,250)" d="m0 0h2l6 10-4 1-3-4z" fill="#FDE3C1" /><path transform="translate(1083,141)" d="m0 0 5 3 3 2v2l4 1-1 2-11-6-2-3z" fill="#FBD5AE" /><path transform="translate(1461,1214)" d="m0 0h15v2l3 1h-8l-10-2z" fill="#FBD6AD" /><path transform="translate(1264,686)" d="m0 0h2l-2 4-5 5-6 7-1-2 7-8z" fill="#FB965E" /><path transform="translate(884,628)" d="m0 0 1 2-4 14-4 2 4-13z" fill="#F8CB9A" /><path transform="translate(894,308)" d="m0 0 4 3 4 8-2 4-4-9-2-3z" fill="#F99862" /><path transform="translate(1164,195)" d="m0 0 6 2 6 1-1 3-7 1-2-4-2-1z" fill="#FBDDBB" /><path transform="translate(491,1037)" d="m0 0h2l4 4 7 4-4 1-6-3-3-3z" fill="#FAD3A7" /><path transform="translate(133,868)" d="m0 0h3l-1 6-4 10-2 1z" fill="#F9D1A3" /><path transform="translate(146,823)" d="m0 0 6 2-4 1-3 11-1-4 1-9z" fill="#FFE8C7" /><path transform="translate(190,741)" d="m0 0 2 4-2 5-3 5-1-3 3-10z" fill="#FFE8C7" /><path transform="translate(1297,638)" d="m0 0 3 4 2 9-3 5-2 1 2-6-1-7z" fill="#FB985F" /><path transform="translate(351,443)" d="m0 0 1 4-7 12h-2l1-4 6-9z" fill="#F8CB9A" /><path transform="translate(886,300)" d="m0 0h2l3 9 3 6v3l-4-5-4-10z" fill="#FDDFBB" /><path transform="translate(969,286)" d="m0 0 5 1 5 2 2 4-5-1-7-5z" fill="#F9B881" /><path transform="translate(1072,234)" d="m0 0 4 5 2 4-4 2-2-3z" fill="#FDEAD0" /><path transform="translate(1345,1307)" d="m0 0 8 1v8l-7-6z" fill="#FFE8C7" /><path transform="translate(581,1115)" d="m0 0h6l10 8-5-1-11-6z" fill="#F8CB9A" /><path transform="translate(167,790)" d="m0 0 1 2-3 8-1 6h-1l-1-11z" fill="#FBD7B0" /><path transform="translate(1372,627)" d="m0 0 11 2 6 3-1 4-1-3-7-1-2-2-6-2z" fill="#EF9A70" /><path transform="translate(1263,580)" d="m0 0 2 1 4 7 6 8-4-2-7-8z" fill="#653B2D" /><path transform="translate(973,480)" d="m0 0 1 2-4 1-1 4-5 6-3-1 3-3 4-6z" fill="#FAD5AC" /><path transform="translate(376,473)" d="m0 0 2 1 3 12v3h-2l-3-12-1-2z" fill="#FDDFBB" /><path transform="translate(347,442)" d="m0 0 1 4-7 12-2 3 1-7 4-6z" fill="#FFE8C7" /><path transform="translate(938,261)" d="m0 0h5v3h12l-1 2h-14l-2-2z" fill="#FDE0BC" /><path transform="translate(959,249)" d="m0 0 9 1 5 1v1l-11 1h-9v-1h8v-2z" fill="#FEE8C8" /><path transform="translate(111,1115)" d="m0 0h1l1 11-1 9-2 1v-10z" fill="#FEFEFE" /><path transform="translate(487 1e3)" d="m0 0h2l3 8-2 4-3-4z" fill="#FBD6AE" /><path transform="translate(611,628)" d="m0 0 6 1 3 2-1 3-4-1-4-3z" fill="#FCDBB5" /><path transform="translate(1527,588)" d="m0 0h1v7l-2 2h-5z" fill="#FDEDE1" /><path transform="translate(959,413)" d="m0 0 4 5 5 5-1 2-8-6z" fill="#FBD7AF" /><path transform="translate(1138,340)" d="m0 0h8v1l-9 3-2 1-2 4v-7z" fill="#FDE2C0" /><path transform="translate(902,319)" d="m0 0 3 3 1 4 3 1-1 3-3-1-4-6z" fill="#FB835D" /><path transform="translate(1273,1309)" d="m0 0h5l-5 8-5 2-1-2h2v-2l4-2z" fill="#F9CEA0" /><path transform="translate(1220,1283)" d="m0 0h2l3 7 2 4-5-2-2-4z" fill="#FBE1C2" /><path transform="translate(1447,1210)" d="m0 0 18 3v1h-12l-6-2z" fill="#F8CD9E" /><path transform="translate(1186,1157)" d="m0 0 4 2 8 8h-3l-4-2z" fill="#FDE7CD" /><path transform="translate(500,1043)" d="m0 0 10 1 7 5-2 1-5-3-9-2z" fill="#FEC17C" /><path transform="translate(1330,746)" d="m0 0 4 2 2 2h-9l-5 4-2-1 7-6z" fill="#F4BC88" /><path transform="translate(393,514)" d="m0 0h2l6 9 2 6-4-4-3-5-3-4z" fill="#F8CB9A" /><path transform="translate(342,459)" d="m0 0 1 2-5 12h-1l1-9z" fill="#F9D0A4" /><path transform="translate(366,439)" d="m0 0h2l3 11v5l-2-3-1-7h-2z" fill="#FFE8C7" /><path transform="translate(1337,417)" d="m0 0h3l-1 5h-3l-1 2v-2l-3-1z" fill="#D14D3F" /><path transform="translate(1095,267)" d="m0 0 4 4 2 4v3l-3-1-3-4z" fill="#FDEFDD" /><path transform="translate(1230,1409)" d="m0 0h4l1 2 6 3v1l-10-1-2-4z" fill="#FDE0BC" /><path transform="translate(1115,1346)" d="m0 0 5 2 9 6-2 1-11-6z" fill="#FDE3C0" /><path transform="translate(1384,1085)" d="m0 0 3 1-2 3h3v2l6 1 1 3-4-1-4-2v-2l-4-1z" fill="#FCDAB2" /><path transform="translate(459,977)" d="m0 0 3 1 3 6 5 5-1 2-9-9z" fill="#F8CD9E" /><path transform="translate(182,752)" d="m0 0h1v6h2l-1 4-3 1-1-5z" fill="#FFE8C7" /><path transform="translate(1253,549)" d="m0 0 3 1 1 6h-2v-4h-3l-2 8h-1v-6z" fill="#F8C89C" /><path transform="translate(371,463)" d="m0 0 2 4 3 9v3l-4-5-2-8z" fill="#FAD2A6" /><path transform="translate(1241,429)" d="m0 0h6v2h-2l-1 3h-6v-2z" fill="#ED8055" /><path transform="translate(1141,1167)" d="m0 0 2 1 2 8-1 4-3-6-1-6z" fill="#FEFCFA" /><path transform="translate(501,1046)" d="m0 0 7 1 6 5-1 2-12-7z" fill="#FCD9B3" /><path transform="translate(73,987)" d="m0 0 4 2-6 7-2 3 1-5 1-3h2z" fill="#FACEA3" /><path transform="translate(461,977)" d="m0 0h2l3 4v3h3l2 5-4-2-4-4z" fill="#FEC17C" /><path transform="translate(555,595)" d="m0 0 7 2 2 2-5 2-5-3z" fill="#FCDCB7" /><path transform="translate(1536,573)" d="m0 0h1l-1 9-4 1v-3z" fill="#FDEFE5" /><path transform="translate(1067,131)" d="m0 0 6 1 6 2v3l-3 1v-2l-5-2z" fill="#FFE8C7" /><path transform="translate(1330,1375)" d="m0 0 2 1-4 8-5 4-2-1 7-8z" fill="#FFE8C7" /><path transform="translate(909,1201)" d="m0 0h5l6 4-3 1-7-2z" fill="#F1B680" /><path transform="translate(324,1032)" d="m0 0 5 1 1 1v10l-2-2-1-8-3-1z" fill="#FEFCF9" /><path transform="translate(1249,699)" d="m0 0v3l-3 6h-2l-1 2 1-7z" fill="#F9D0A5" /><path transform="translate(1518,600)" d="m0 0 1 4-1 4-6 1 4-6z" fill="#FDF2E8" /><path transform="translate(339,552)" d="m0 0 4 5 1 7 2 1h-3l-3-5z" fill="#FBD8AF" /><path transform="translate(422,551)" d="m0 0 3 1-1 4-4 4-4 1-3-2h5v-2l4-2z" fill="#EFB482" /><path transform="translate(1537,540)" d="m0 0 1 2h2v3l-11 2 1-2 5-1z" fill="#623B2D" /><path transform="translate(337,532)" d="m0 0 3 3-1 4-4 1v-7z" fill="#FDC180" /><path transform="translate(921,360)" d="m0 0h2l1 2h3l-2 6-4-4z" fill="#FAD5AB" /><path transform="translate(891,299)" d="m0 0h2l4 8 1 4-4-3v-3h-2z" fill="#FB6963" /><path transform="translate(1255,270)" d="m0 0 5 2h4v2l-2 1v3l-3-1z" fill="#FDE2C1" /><path transform="translate(873,225)" d="m0 0 11 1 3 2v3l-4-1v-2l-10-2z" fill="#F6BC8D" /><path transform="translate(1051,200)" d="m0 0 3 3 5 10h-3l-5-11z" fill="#FDECD6" /><path transform="translate(1227,1194)" d="m0 0 8 4 1 3-9-3z" fill="#FBD5AE" /><path transform="translate(97,1157)" d="m0 0 2 1-3 7-3 2h-7v-1l7-2 3-3z" fill="#FAD6AC" /><path transform="translate(1438,1116)" d="m0 0 6 1-1 3-4 2-2-5z" fill="#FEEACD" /><path transform="translate(911,609)" d="m0 0 1 3-4 3h-4l2-4z" fill="#FEC17C" /><path transform="translate(1330,421)" d="m0 0 1 4-2 2h-5l3-5z" fill="#FB9B60" /><path transform="translate(1426,1105)" d="m0 0 5 2-1 2h-5z" fill="#FEF1DD" /><path transform="translate(1245,1306)" d="m0 0 6 1v2h-7z" fill="#FEE9CA" /><path transform="translate(1257,1307)" d="m0 0 7 1 1 2h-7z" fill="#FFE8C7" /><path transform="translate(1059,124)" d="m0 0h3l-1 3-4 2 1-4z" fill="#FFE8C7" /><path transform="translate(407,526)" d="m0 0 4 4v2h-2z" fill="#FFE8C7" /><path transform="translate(1082,134)" d="m0 0 6 2v1h-5z" fill="#FEEACC" /><path transform="translate(1545,529)" d="m0 0 3 3h-3z" fill="#FEFEFE" /><path transform="translate(1377,993)" d="m0 0 2 4-2 1z" fill="#FEFEFE" /><path transform="translate(1049,195)" d="m0 0 2 4h-2l-1-3z" fill="#FEEBD2" /><path transform="translate(1095,1336)" d="m0 0 5 1-3 1z" fill="#FEFAF4" /><path transform="translate(1554,1191)" d="m0 0h2l-1 3-2-2z" fill="#FFE8C7" /><path transform="translate(173,769)" d="m0 0 1 4h-2z" fill="#FFE8C7" /><path transform="translate(1254,1202)" d="m0 0 1 3h-2z" fill="#FEFEFE" /><path transform="translate(1253,1307)" d="m0 0 3 1h-3z" fill="#FEEDD4" /><path transform="translate(1166,1220)" d="m0 0h2v2h-2z" fill="#FEFEFE" /><path transform="translate(1421,881)" d="m0 0 1 4z" fill="#FEFEFE" /><path transform="translate(420,539)" d="m0 0 3 1h-3z" fill="#FFE8C7" /><path transform="translate(997,270)" d="m0 0 2 1h-3z" fill="#FEF3E2" /><path transform="translate(1058,214)" d="m0 0 2 1-1 2z" fill="#FEF8F0" /><path transform="translate(1230,1289)" d="m0 0" fill="#FEFEFE" /><path transform="translate(950,1235)" d="m0 0 2 2h-2z" fill="#FFE8C7" /><path transform="translate(1138,1167)" d="m0 0" fill="#FEFEFE" /><path transform="translate(109,1139)" d="m0 0" fill="#FEFEFE" /><path transform="translate(1360,1024)" d="m0 0 2 2h-2z" fill="#FEFEFE" /><path transform="translate(1418,895)" d="m0 0 1 2-2-1z" fill="#FEFEFE" /><path transform="translate(1445,748)" d="m0 0" fill="#FEFEFE" /><path transform="translate(1422,455)" d="m0 0h2l-1 2z" fill="#FEFEFE" /><path transform="translate(1049,1305)" d="m0 0 2 1z" fill="#FEF3E2" /><path transform="translate(674,1175)" d="m0 0 2 1z" fill="#FFE8C7" /><path transform="translate(1403,1095)" d="m0 0" fill="#FEF3E2" /><path transform="translate(1364,1032)" d="m0 0" fill="#FEFEFE" /><path transform="translate(1420,885)" d="m0 0" fill="#FEFEFE" /><path transform="translate(590,610)" d="m0 0 2 1z" fill="#FFE8C7" /><path transform="translate(567,600)" d="m0 0" fill="#FFE8C7" /><path transform="translate(565,599)" d="m0 0 2 1z" fill="#FFE8C7" /><path transform="translate(1092,138)" d="m0 0 2 1z" fill="#FEFEFE" /><path transform="translate(1130,1358)" d="m0 0" fill="#FEFEFE" /><path transform="translate(1065,1314)" d="m0 0" fill="#FFE8C7" /><path transform="translate(1265,1307)" d="m0 0" fill="#FFE8C7" /><path transform="translate(1036,1297)" d="m0 0" fill="#FEFEFE" /><path transform="translate(959,1242)" d="m0 0" fill="#FFE8C7" /><path transform="translate(948,1234)" d="m0 0" fill="#FFE8C7" /><path transform="translate(1419,1210)" d="m0 0" fill="#FEFEFE" /><path transform="translate(1249,1205)" d="m0 0" fill="#FEFEFE" /><path transform="translate(1252,1202)" d="m0 0" fill="#FFE8C7" /><path transform="translate(1146,1159)" d="m0 0" fill="#FEFEFE" /><path transform="translate(1575,1108)" d="m0 0" fill="#FFE8C7" /><path transform="translate(1406,1095)" d="m0 0" fill="#FEFEFE" /><path transform="translate(1392,1085)" d="m0 0" fill="#FEFEFE" /><path transform="translate(1360,1054)" d="m0 0" fill="#FEFEFE" /><path transform="translate(1363,1030)" d="m0 0" fill="#FEFEFE" /><path transform="translate(475,1028)" d="m0 0" fill="#FFE8C7" /><path transform="translate(474,1027)" d="m0 0" fill="#FFE8C7" /><path transform="translate(474,1020)" d="m0 0" fill="#FFE8C7" /><path transform="translate(482,1010)" d="m0 0" fill="#FFE8C7" /><path transform="translate(481,1009)" d="m0 0" fill="#FFE8C7" /><path transform="translate(122,1009)" d="m0 0" fill="#FEFEFE" /><path transform="translate(120,1009)" d="m0 0" fill="#FEFEFE" /><path transform="translate(1388,968)" d="m0 0" fill="#FEFEFE" /><path transform="translate(1396,948)" d="m0 0" fill="#FEFEFE" /><path transform="translate(1143,333)" d="m0 0" fill="#FEFEFE" /><path transform="translate(1048,307)" d="m0 0" fill="#FEFEFE" /><path transform="translate(1112,292)" d="m0 0" fill="#FFE8C7" /><path transform="translate(1250,263)" d="m0 0" fill="#FFE8C7" /><path transform="translate(1024,155)" d="m0 0" fill="#FEFEFE" /><path transform="translate(1028,114)" d="m0 0" fill="#FFE8C7" /></svg>